<?xml version="1.0" encoding="UTF-8" standalone="no"?>
<!-- Created with Inkscape (http://www.inkscape.org/) -->

<svg
   version="1.1"
   id="svg1"
   width="2048"
   height="2048"
   viewBox="0 0 2048 2048"
   xmlns="http://www.w3.org/2000/svg"
   xmlns:svg="http://www.w3.org/2000/svg">
  <defs
     id="defs1" />
  <g
     id="g1">
    <g
       id="g2"
       transform="translate(-26.401469,26.401472)">
      <path
         style="fill:#c98970"
         d="m 1274.5,1756.5424 c -29.1446,-4.5891 -50.4542,-15.384 -70.7892,-35.8599 -26.5518,-26.736 -41.0884,-62.9341 -42.4454,-105.6952 -0.7482,-23.5765 2.2524,-40.397 11.269,-63.1703 7.4266,-18.7574 16.3049,-32.3895 31.2056,-47.9139 10.8777,-11.333 23.0763,-20.9339 32.6547,-25.7009 6.889,-3.4286 12.6053,-4.2222 12.6053,-1.7502 0,0.7986 -5.7075,6.5361 -12.6832,12.75 -20.7717,18.503 -30.6167,31.6799 -40.7492,54.54 -9.2521,20.8739 -12.5676,36.5272 -12.5676,59.3348 0,22.0341 3.461,40.3175 10.9862,58.0371 3.3496,7.8873 13.645,25.2052 19.5506,32.8861 12.7887,16.633 33.9122,30.8112 56.1866,37.7126 8.1922,2.5383 9.9752,2.7179 26.7766,2.6981 19.2715,-0.023 27.2549,-1.1546 42.8162,-6.0704 16.7155,-5.2804 40.6307,-17.3387 61.6838,-31.1015 12.884,-8.4226 49.7721,-35.6935 60.5,-44.727 41.2618,-34.7447 102.6948,-96.2521 139.8422,-140.0118 40.4725,-47.6765 79.2657,-102.8894 103.6352,-147.5 8.4342,-15.4397 22.009,-46.1629 26.3314,-59.5949 13.9566,-43.3701 15.0537,-79.6988 3.0941,-102.458 -6.7787,-12.8998 -16.6332,-20.1242 -42.9029,-31.452 -16.2458,-7.0055 -25.0604,-11.6162 -35.0533,-18.3355 -22.5969,-15.1943 -42.2657,-37.3467 -51.8677,-58.4168 -4.7602,-10.4456 -11.2657,-31.0048 -13.052,-41.2481 -3.531,-20.2484 -0.9093,-53.61416 4.4375,-56.47571 4.0651,-2.17558 4.7355,0.49364 5.3174,21.17171 0.5845,20.7694 2.6247,32.6462 8.0908,47.0997 7.8535,20.7659 25.7956,45.7396 42.4671,59.1099 12.0461,9.6608 22.7741,15.5647 44.7595,24.632 19.8755,8.1972 28.6199,12.8518 40.5885,21.605 15.0716,11.0227 19.0258,11.323 27.5097,2.0896 8.5617,-9.3181 19.7658,-36.6985 25.4634,-62.2269 0.8847,-3.9638 1.324,-12.7873 1.2945,-26 -0.04,-17.9314 -0.3303,-21.3446 -2.8063,-33 -4.7315,-22.2724 -15.2928,-51.157 -27.3251,-74.7331 -7.0342,-13.78272 -26.808,-43.49251 -37.2387,-55.95052 -8.483,-10.13169 -19.03,-19.61317 -24.9334,-22.41453 -4.6694,-2.21577 -11.5646,-1.42578 -21.6901,2.48503 -17.204,6.64476 -30.269,17.03563 -40.3276,32.0735 -7.4161,11.08711 -9.1257,17.15484 -6.6558,23.62219 2.2557,5.90661 7.7349,9.99887 23.5119,17.56039 6.8803,3.29758 13.9462,7.37752 15.702,9.06654 2.3006,2.21315 4.6498,3.30134 8.4102,3.89579 2.8699,0.45366 8.586,2.42434 12.7026,4.37927 33.7564,16.03084 60.5258,51.63214 67.3087,89.51544 1.8384,10.2678 1.6144,36.9991 -0.4098,48.9119 -1.6554,9.7419 -3.309,12.8374 -6.2539,11.7073 -1.4683,-0.5634 -1.6139,-1.5892 -1.0483,-7.3867 1.5356,-15.7435 -3.4052,-46.1196 -10.342,-63.582 -6.385,-16.0733 -10.932,-23.724 -22.3765,-37.6505 -14.0255,-17.0673 -25.427,-27.619 -37.6833,-34.87496 -3.025,-1.79085 -6.85,-4.78813 -8.5,-6.66062 -2.8267,-3.20792 -3.8663,-3.58353 -18,-6.50375 -16.9397,-3.49998 -23.4557,-5.8331 -31.8478,-11.40344 -8.1188,-5.38894 -11.0024,-10.06271 -11.4857,-18.61627 -0.8791,-15.55799 11.1941,-38.99443 27.64,-53.65454 26.6563,-23.76182 52.4232,-33.37608 85.8897,-32.04745 21.8406,0.86708 54.7061,8.09972 74.6577,16.42976 3.2196,1.34424 7.04,2.30619 8.4899,2.13767 l 2.636,-0.3064 1.2292,-14.88791 c 1.4764,-17.88059 2.6951,-22.40261 10.378,-38.50559 3.2521,-6.81643 5.913,-13.43103 5.913,-14.69911 0,-3.22431 -4.4397,-6.32202 -19.074,-13.30861 -31.1982,-14.89434 -58.0038,-23.96631 -95.159,-32.20514 -40.9002,-9.06929 -54.2322,-13.64841 -76.7515,-26.36186 -5.8037,-3.27652 -7.3557,-3.2019 -17.8714,0.85926 -15.6995,6.06316 -28.0188,13.01017 -50.4821,28.46745 -50.7535,34.92425 -75.5754,83.92764 -59.7027,117.86484 3.6152,7.72969 10.3348,15.01999 18.7325,20.32367 5.1286,3.23897 6.3695,4.50782 6.12,6.25786 -0.4667,3.27288 -5.6447,2.50658 -15.4085,-2.28029 -13.5013,-6.6192 -25.7931,-21.12017 -30.4137,-35.87991 -6.4571,-20.62598 3.1733,-55.40973 22.7037,-82.00232 10.3711,-14.1214 33.0063,-35.63865 50.8067,-48.29736 15.6281,-11.11391 53.6641,-30.86329 71.6732,-37.21475 12.4429,-4.38838 51.2974,-13.89754 67.5781,-16.53891 6.4618,-1.04836 19.1737,-2.64036 28.2487,-3.5378 21.8103,-2.15684 25.1153,-2.747 26.3343,-4.70243 0.7425,-1.1911 0.3648,-4.52279 -1.3605,-12 -2.9908,-12.96211 -3.2302,-33.04487 -0.5346,-44.85109 0.9418,-4.125 1.9606,-9.40184 2.264,-11.72632 0.4967,-3.80593 0.3078,-4.31899 -1.8988,-5.15794 -7.5643,-2.87595 -43.6368,-3.97981 -68.8044,-2.10549 -15.3017,1.13956 -47.8172,5.40396 -81,10.62308 -20.4857,3.22208 -23.8876,3.49935 -38,3.09712 -18.1619,-0.51764 -24.96,-2.29496 -42.1068,-11.00858 -13.2647,-6.7408 -22.8856,-13.2284 -39.208,-26.43892 -14.035,-11.35925 -25.8063,-19.41659 -34.7921,-23.81483 -7.3919,-3.6181 -11.0076,-2.96886 -17.8808,3.21074 -15.9061,14.30097 -35.0818,45.94277 -43.5253,71.82114 -7.4726,22.90267 -10.553,39.26711 -12.9884,69 -2.7595,33.689 -4.6949,45.59912 -10.9301,67.26204 -10.5534,36.66521 -25.3652,61.6517 -54.0101,91.11075 -17.5085,18.00628 -31.1798,28.75045 -70.4885,55.39645 -28.5025,19.32094 -38.1176,26.52809 -56.7523,42.53964 -23.1185,19.86414 -42.94,42.55482 -67.8671,77.69112 -43.2597,60.9773 -63.5064,109.0735 -75.3523,179 -5.5158,32.5601 -5.4663,31.1095 -5.8032,170 -0.1989,81.9563 0.04,129.544 0.6544,130.4916 1.5519,2.3931 2.7242,0.2868 5.561,-9.9916 11.8912,-43.0848 21.0906,-68.1291 35.4469,-96.5 10.9111,-21.5626 20.0746,-36.8135 33.6668,-56.0322 14.549,-20.5716 26.0684,-37.9531 34.1098,-51.4678 13.7065,-23.0357 17.2924,-31.065 27.9123,-62.5 19.3017,-57.1333 49.3666,-97.175 91.4767,-121.8324 17.4332,-10.208 40.4281,-18.7253 77.0523,-28.5403 34.3926,-9.2169 43.0029,-12.7655 61.8248,-25.48 19.5185,-13.1852 33.7189,-30.2219 44.9794,-53.9637 5.8379,-12.3087 11.0641,-26.85444 13.0669,-36.3683 1.3184,-6.26285 3.2893,-8.4252 4.9134,-5.39057 1.3133,2.45382 0.015,14.54956 -3.1199,29.07527 -5.3586,24.8267 -17.4069,46.5914 -36.2225,65.4342 -22.1295,22.1616 -45.1805,34.3815 -88.09,46.699 -24.171,6.9385 -33.8498,10.5004 -48.4674,17.8364 -19.9799,10.0271 -29.1064,16.3383 -43.4263,30.0304 -23.3963,22.3707 -39.2136,49.171 -52.0063,88.1181 -8.8865,27.0547 -9.8143,29.4234 -18.8598,48.149 -5.2123,10.7904 -6.8354,15.065 -6.027,15.8734 0.8083,0.8083 4.8297,-0.641 14.9329,-5.382 18.4664,-8.6654 30.3959,-13.0136 44.8266,-16.3391 10.7219,-2.4707 14.4045,-2.8112 34.5751,-3.1966 33.0736,-0.6319 48.0743,2.0631 93.4078,16.782 38.9101,12.6333 64.1907,17.7093 93.2509,18.7235 32.5987,1.1377 68.6223,-5.901 95.9722,-18.7521 21.1994,-9.9611 42.4423,-24.604 53.3534,-36.777 2.8097,-3.1346 7.9058,-10.1992 11.3248,-15.6992 4.4272,-7.1218 6.7775,-10 8.1661,-10 1.6074,0 1.9075,0.6145 1.7092,3.5 -0.3189,4.6397 -8.0266,19.846 -14.2669,28.1464 -7.2962,9.7051 -24.7356,25.9088 -35.8342,33.2952 -10.8794,7.2405 -31.8336,17.6274 -46.3573,22.979 -26.1685,9.6425 -57.9457,14.3975 -88.3011,13.2131 -29.5428,-1.1528 -53.9272,-5.97 -94.5391,-18.6765 -33.1512,-10.3722 -51.2758,-13.4241 -75.438,-12.7026 -30.4325,0.9087 -54.4242,7.9771 -81.8375,24.1106 -34.613,20.3709 -65.0453,53.5039 -84.1655,91.6348 -22.018,43.9099 -37.3,90.9947 -45.9257,141.5 -5.6481,33.0709 -13.3724,107.2684 -15.5299,149.1754 -1.0791,20.9608 -1.8607,23.4211 -8.3806,26.3812 -5.2857,2.3998 -9.0787,2.4012 -14.3557,0.01 -7.0447,-3.1985 -7.395,-4.34 -9.4694,-30.8551 -3.135,-40.0724 -8.29128,-87.196 -12.44175,-113.7067 -3.01557,-19.2616 -4.07011,-23.5 -5.84699,-23.5 -1.48194,0 -1.75586,0.8623 -4.55175,14.3295 -3.45357,16.6352 -12.65179,43.0233 -20.27317,58.1603 -9.98076,19.823 -32.85333,46.6847 -54.24494,63.7056 -22.11899,17.5996 -46.60863,28.5494 -76.5,34.2047 -34.01135,6.4347 -65.68629,6.1313 -100.75599,-0.9654 -57.51286,-11.6382 -109.34423,-39.8706 -149.77773,-81.5835 -19.15562,-19.7617 -26.7699,-31.0694 -44.61424,-66.2549 -10.61052,-20.9218 -15.04215,-27.0658 -21.58042,-29.9189 -2.07439,-0.9052 -12.32162,-4.0936 -22.77162,-7.0853 -58.56293,-16.7661 -108.1003,-48.1065 -141.65613,-89.6203 -24.18413,-29.9195 -43.67305,-70.7372 -49.40388,-103.4718 -1.83331,-10.4719 -2.39143,-33.1006 -1.46753,-59.5 0.67331,-19.239 -0.10547,-20.7413 -18.47246,-35.6343 -12.35362,-10.017 -28.15569,-26.1927 -36.2425,-37.0994 -20.60281,-27.787 -34.62929,-61.6003 -39.93335,-96.2663 -2.53675,-16.5796 -2.52615,-57.5501 0.0195,-75.5 4.73855,-33.412 16.34736,-66.5941 34.53816,-98.72216 10.15954,-17.94348 17.6994,-28.00436 33.17332,-44.26508 C 287.57077,910.20822 292,903.18414 292,894.8833 c 0,-2.63849 -1.59105,-11.00412 -3.53567,-18.59028 -8.26154,-32.22917 -9.36943,-57.40946 -3.88476,-88.29302 1.86432,-10.49779 8.34226,-32.48091 13.11317,-44.5 14.78131,-37.23777 45.33833,-74.03099 80.4444,-96.86182 16.26508,-10.57781 17.33849,-13.37282 13.73096,-35.75361 -1.88499,-11.69424 -2.32326,-18.31217 -2.34337,-35.38457 -0.0321,-27.23565 2.88866,-43.71629 11.69666,-66 19.00974,-48.09348 56.70175,-88.41238 101.32301,-108.38455 24.14968,-10.80924 40.40539,-14.97018 67.24894,-17.21358 15.90968,-1.32963 21.78022,-3.30524 26.10116,-8.78382 1.56945,-1.98993 6.445,-11.08931 10.83456,-20.22085 14.17324,-29.48443 21.10108,-40.2072 37.5983,-58.19393 26.47669,-28.86722 58.13,-47.9311 97.51373,-58.72973 18.65019,-5.1137 33.05984,-6.9747 53.96013,-6.96893 33.17386,0.009 61.31785,6.41335 86.19878,19.61467 13.7653,7.30358 30.26593,18.81166 39.48437,27.53769 12.45585,11.79049 26.82847,31.67818 36.02104,49.84303 7.66569,15.14769 15.80157,43.40542 19.14647,66.5 2.34601,16.1978 2.31403,46.3673 -0.0678,64 -6.20036,45.90053 -23.51308,99.35733 -43.4688,134.21938 -3.39407,5.92934 -12.40201,20.00562 -20.01764,31.28062 -12.63326,18.70363 -14.09858,20.5 -16.72211,20.5 -5.22692,0 -4.30037,-3.17525 9.05482,-31.03044 6.93097,-14.45605 14.35954,-30.93805 16.50795,-36.62665 2.14841,-5.6886 5.05784,-12.92435 6.4654,-16.07945 5.24223,-11.75063 14.99947,-47.14339 18.95704,-68.76346 9.54526,-52.14546 6.42414,-100.14339 -9.03863,-139 -8.2798,-20.80641 -14.20014,-30.87053 -27.48529,-46.7228 -20.07608,-23.95542 -51.70688,-42.14347 -87.60648,-50.37464 -18.14083,-4.15939 -48.52411,-3.5985 -69.73031,1.28726 -26.98922,6.21813 -57.1556,21.61711 -78.74792,40.1983 -22.85036,19.66379 -45.78777,56.22856 -49.38639,78.72736 -0.88891,5.55753 2.32971,11.6636 9.20493,17.46274 19.26714,16.25154 27.06065,26.54637 23.4186,30.93477 -2.03251,2.44902 -5.64635,1.73896 -17.5219,-3.44276 -6.21397,-2.71137 -15.04682,-6.11398 -19.62856,-7.56135 -22.42607,-7.08439 -50.27503,-7.26019 -79.34942,-0.50089 -17.39222,4.04339 -33.64072,11.40871 -52.48934,23.793 -21.42522,14.07723 -45.26152,40.73658 -57.34303,64.13444 -15.41718,29.85794 -20.71274,63.8638 -15.06948,96.76993 2.55628,14.90582 6.67775,22.56815 13.53129,25.15638 1.49029,0.56281 12.9097,0.94443 26.5,0.8856 30.82261,-0.13344 44.91903,2.06493 63.88122,9.9624 16.02248,6.67313 38.08752,22.86561 49.07604,36.01456 10.48958,12.55191 13.18709,18.11257 10.22396,21.0757 -2.04529,2.04529 -3.31876,1.40959 -10.92552,-5.45395 -21.35625,-19.26964 -43.67138,-30.89603 -69.91781,-36.42784 -12.3871,-2.61075 -34.99721,-3.12287 -46.95667,-1.06356 -17.45637,3.00582 -38.14079,9.60742 -51.69443,16.49871 -14.6425,7.4449 -33.16153,21.54729 -46.31513,35.26933 -14.28496,14.9023 -25.33337,32.57304 -34.85477,55.74646 -9.34215,22.73715 -13.13098,42.11038 -13.12883,67.13085 0.002,22.89219 3.09105,37.05547 11.74796,53.86374 12.13618,23.56364 27.69156,35.35175 53.08317,40.22727 9.53007,1.8299 28.77234,1.77453 37.66166,-0.10837 8.5613,-1.81343 8.0219,-1.81825 9.92894,0.0888 2.26931,2.26931 1.95973,3.91673 -1.4701,7.82309 -3.81994,4.35067 -9.37249,7.60079 -18.95847,11.09711 -5.97685,2.17996 -9.8355,2.83876 -19,3.24394 -13.88356,0.61382 -22.37689,-0.90186 -41.03872,-7.32357 -17.97213,-6.18437 -23.51146,-5.88665 -34.93875,1.87785 -27.52788,18.70437 -55.15472,62.78393 -66.56717,106.21014 -7.50304,28.5503 -10.64319,58.9102 -8.62648,83.4034 2.1778,26.4497 8.21564,49.9235 18.25819,70.9837 9.90579,20.7734 20.30959,35.5661 34.61087,49.2119 11.64814,11.1142 21.11683,17.8466 36.30206,25.8112 20.16334,10.5756 21.14538,12.2667 15.6417,26.9347 -17.36076,46.2687 -9.66311,97.1426 22.02217,145.545 9.23694,14.1103 16.16916,22.6178 28.25056,34.6704 20.47728,20.4284 44.73143,37.1115 72.91931,50.1571 25.19297,11.6596 55.02642,19.8319 85.22578,23.3459 25.88888,3.0125 60.60631,0.5873 86.33968,-6.0313 17.0823,-4.3936 25.24691,-7.3692 41.39341,-15.0857 22.92192,-10.9546 40.00353,-23.2964 58.25189,-42.0879 26.22898,-27.0098 36.45486,-51.0966 38.2765,-90.1596 0.54206,-11.6241 0.10456,-12.1988 -9.28647,-12.1988 -19.89022,0 -40.509,-3.7757 -68.5363,-12.5504 -40.16266,-12.574 -55.15475,-15.1351 -82.82287,-14.1484 -23.52272,0.8389 -44.35946,5.8312 -65.30466,15.6464 -16.72,7.8353 -33.23447,21.5881 -44.71613,37.2385 -6.59503,8.9895 -7.32686,9.5702 -9.42173,7.4753 -1.36398,-1.364 -1.40306,-2.151 -0.29141,-5.8683 6.31398,-21.1139 30.26329,-45.239 57.317,-57.7377 23.96321,-11.0709 49.06933,-16.0526 80.90978,-16.0546 14.95632,-9e-4 16.83179,-0.3361 16.83179,-3.0086 0,-2.0218 -24.43129,-35.0798 -35.35453,-47.8381 -15.78732,-18.4396 -30.69983,-28.9132 -53.54435,-37.6062 -18.35126,-6.9831 -32.15034,-9.2906 -63.43933,-10.6082 -34.89343,-1.4694 -50.27656,-4.5222 -70.50531,-13.9918 -10.93606,-5.1195 -19.07529,-11.0243 -27.66899,-20.0731 -21.67942,-22.8278 -32.16064,-51.949 -29.51899,-82.0163 2.1501,-24.4724 9.93597,-43.4389 23.59971,-57.4892 6.15585,-6.3301 10.44727,-8.4745 13.33657,-6.6644 3.08458,1.9324 2.18316,4.9038 -4.5049,14.8495 -17.68881,26.3048 -21.77039,48.1403 -14.38296,76.9456 2.86386,11.1669 11.75384,28.7295 18.7729,37.0868 9.80125,11.6699 21.58833,20.0491 36.57172,25.9979 12.96014,5.1456 22.48953,6.4633 53.45649,7.392 38.43813,1.1527 61.98915,5.2899 84.04233,14.7639 22.48794,9.6607 47.64634,31.625 70.05794,61.1633 12.65664,16.6814 19.86147,24.1391 32.5817,33.725 15.77824,11.8905 30.22364,18.9117 49.051,23.8411 18.78624,4.9186 32.6213,5.3734 77.449,2.5457 15.19183,-0.9582 28.58497,-0.3691 44.75007,1.9686 3.71246,0.5368 8.66243,0.985 10.99993,0.9959 3.6375,0.017 4.25,-0.2785 4.25,-2.05 0,-1.1384 -1.39384,-4.0957 -3.09743,-6.5718 -7.46879,-10.8555 -14.25344,-28.798 -23.39069,-61.8584 -5.42037,-19.612 -12.72104,-35.1384 -23.06263,-49.0478 -6.94141,-9.3361 -19.18881,-21.1322 -28.12407,-27.0878 -13.27287,-8.8468 -34.34525,-17.0565 -48.32518,-18.8273 -10.17513,-1.2888 -13.16074,-2.4016 -12.8123,-4.7751 0.44636,-3.0406 4.74643,-3.9582 15.3123,-3.2677 24.107,1.5755 40.248,7.0425 60.07059,20.3462 17.06075,11.4501 32.2074,27.8256 39.93983,43.1802 5.9946,11.9037 15.07581,34.9139 21.99017,55.7193 11.48199,34.5493 21.54595,48.7036 55.99435,78.7522 22.49224,19.6195 33.08716,31.7413 46.13838,52.7875 6.28258,10.1311 15.73369,29.2922 19.83846,40.2203 3.51675,9.3626 15.82495,49.1772 17.98693,58.1841 1.81176,7.548 3.81226,11.3799 5.20946,9.9785 1.3382,-1.342 0.806,-250.7519 -0.5689,-266.6626 -1.5967,-18.4762 -3.3635,-28.2899 -9.12219,-50.6671 -6.08956,-23.663 -9.98577,-34.35 -19.99073,-54.8329 -30.24304,-61.9159 -82.3765,-103.4692 -151.02009,-120.3716 -25.49984,-6.279 -50.35068,-8.6061 -82.96626,-7.7693 -27.37419,0.7023 -38.46434,1.717 -57,5.2152 -27.99524,5.2834 -51.03104,12.0516 -78.23044,22.985 -24.50909,9.8519 -40.4249,17.4514 -56.93958,27.1877 -16.52136,9.7402 -22.82998,11.4465 -22.82998,6.1747 0,-3.5549 10.58264,-12.6817 29.13068,-25.1232 20.75959,-13.9249 37.50325,-23.1937 58.39221,-32.3245 15.70485,-6.8647 18.63999,-8.7111 16.78936,-10.5618 -0.55165,-0.5516 -8.19453,-3.4149 -16.98419,-6.3629 C 573.19804,1019.4255 546.64059,1003.7533 522.5,979.53944 507.20025,964.19327 498.96344,952.951 490.96654,936.5 478.08942,910.00955 473.20668,885.3235 475.09261,856.24491 476.08502,840.94306 478.0234,831.10358 483.21786,815 c 8.37602,-25.96687 22.50691,-47.74399 25.29017,-38.97469 0.42311,1.33309 -0.91061,5.3491 -3.90219,11.75 -10.84566,23.20588 -14.52016,38.40976 -15.31027,63.34898 -0.66867,21.10609 0.82823,32.28157 6.69564,49.98799 8.89901,26.85507 25.24363,50.66751 48.00879,69.9439 28.74842,24.34271 61.99529,38.57842 111.08936,47.56652 l 15.41064,2.8213 55,0.065 c 66.03392,0.078 72.68573,0.7513 114.09287,11.5537 8.30108,2.1656 15.83858,3.9375 16.75,3.9375 5.22056,0 -0.7566,-6.7814 -33.38462,-37.8764 C 802.91422,980.02131 791.5179,971.46522 765.5,955.98532 c -15.56248,-9.25923 -36.69256,-23.37987 -44.87681,-29.98993 -9.588,-7.7438 -26.03665,-25.80378 -32.78383,-35.99539 -9.45719,-14.28506 -16.99882,-32.6834 -21.03305,-51.31159 -1.79128,-8.27126 -2.20536,-13.38729 -2.2006,-27.18841 0.006,-17.71905 1.13657,-27.86373 4.50951,-40.46842 1.92183,-7.18189 12.87855,-39.0855 18.35933,-53.45842 5.7048,-14.96041 8.71393,-29.97591 9.2331,-46.07316 0.43306,-13.42689 0.20785,-16.35254 -2.14743,-27.89679 -4.86696,-23.85505 -12.18161,-39.28144 -24.46482,-51.59562 -12.11912,-12.14968 -23.02714,-18.29164 -38.37437,-21.60737 -9.77972,-2.11289 -27.28135,-2.07311 -36.53009,0.083 C 586.26662,572.56373 583,572.00074 583,568.38216 c 0,-7.23568 18.68676,-16.59049 35.89282,-17.96838 13.62034,-1.09073 32.79923,4.30157 48.92513,13.7557 8.04783,4.7182 21.67776,18.8602 27.95525,29.00551 14.00776,22.63853 21.34571,53.25288 19.93708,83.17865 -1.0454,22.20915 -4.66198,37.35349 -17.69961,74.11662 -10.56484,29.79043 -11.98442,35.73647 -12.66057,53.02974 -1.12146,28.68313 5.24236,50.46589 22.55374,77.19929 7.69833,11.88828 17.34277,21.50796 34.09616,34.00862 11.96653,8.92891 38.63883,24.86429 44.75493,26.73886 3.85896,1.18277 3.74734,-1.91557 -0.56869,-15.78526 -5.25335,-16.8818 -5.96706,-19.73804 -8.26942,-33.09377 -3.41858,-19.83083 -4.35156,-36.64241 -3.07365,-55.38472 1.96494,-28.81838 7.30396,-50.42725 21.41728,-86.68302 1.92689,-4.95 7.10045,-18.225 11.49679,-29.5 10.1794,-26.10639 14.34955,-39.07814 19.80901,-61.61827 7.14229,-29.48793 7.83694,-34.50156 7.88104,-56.88173 0.0461,-23.39826 -1.35481,-36.11769 -5.94757,-54 -4.00498,-15.59376 -7.92174,-26.45663 -14.57188,-40.41417 -7.69713,-16.15498 -14.88285,-26.11776 -29.18905,-40.4697 -9.53393,-9.56441 -12.765,-13.42908 -12.5408,-15 0.55011,-3.85453 4.40044,-3.13192 12.84201,2.41013 21.33763,14.00856 44.51089,45.76148 54.77924,75.06071 4.42428,12.62405 8.94478,31.78474 10.66719,45.21425 3.22491,25.14443 1.31743,63.20031 -4.56858,91.14713 -4.66685,22.15822 -17.17707,62.70328 -30.01048,97.26256 -14.21406,38.2773 -18.00404,56.08023 -18.05032,84.78909 -0.0573,35.57161 6.6253,64.17369 22.31284,95.5 14.26662,28.48891 30.31907,47.68594 82.7832,99 55.88808,54.663 68.08903,68.3588 84.24355,94.5654 7.5554,12.2567 10.55534,18.4023 17.29706,35.4346 5.9325,14.9877 8.056,18.5241 10.2905,17.1369 0.7063,-0.4385 2.6309,-5.9302 4.2769,-12.2038 13.0053,-49.5704 22.0619,-69.7951 56.8408,-126.9331 11.0658,-18.1801 26.0066,-48.8058 30.9785,-63.5 5.1631,-15.25959 9.6315,-32.9554 11.868,-47 2.3828,-14.96413 2.3246,-47.85343 -0.1098,-61.99387 -3.6627,-21.27475 -13.2622,-51.73836 -28.6774,-91.00613 -14.7319,-37.52704 -21.3807,-60.60039 -25.6461,-89 -2.2287,-14.83858 -2.4938,-56.62022 -0.4347,-68.5 4.9412,-28.50677 13.152,-53.58267 26.1338,-79.81271 8.0964,-16.3588 13.3655,-25.09747 31.1657,-51.68729 11.7821,-17.6 23.7762,-36.18077 26.6537,-41.29059 15.2781,-27.13113 19.2714,-63.01813 11.9853,-107.70941 -1.1657,-7.15 -2.0973,-14.42854 -2.0703,-16.17453 0.1237,-7.99047 7.2624,-13.62185 27.6267,-21.79339 22.0879,-8.86318 45.7026,-15.51325 55.1247,-15.52352 6.6505,-0.007 11.4692,2.53946 14.1747,7.49144 1.2019,2.2 7.3402,16.825 13.6405,32.5 13.6701,34.01094 34.1028,81.89786 39.6644,92.95938 2.1949,4.3655 5.3663,9.50391 7.0475,11.41869 4.96,5.64919 7.4103,5.59238 19.7551,-0.45799 15.0976,-7.39957 23.5408,-12.39697 27.3053,-16.16145 5.0105,-5.01048 8.8032,-14.32347 11.5995,-28.48213 2.37,-12.00075 2.5698,-15.4784 3.2913,-57.2765 0.5047,-29.24064 1.1751,-45.87163 1.9549,-48.5 2.7291,-9.19806 11.323,-17.16701 26.9958,-25.03266 C 1424.3563,255.72123 1441.2646,251 1455.1601,251 c 8.485,0 12.2982,1.7383 13.6722,6.23261 0.5493,1.79706 1.2396,14.29239 1.534,27.76739 0.4152,19.01038 1.1112,28.37884 3.106,41.81113 6.7734,45.60916 11.3043,59.65011 21.0935,65.36728 5.0558,2.95276 15.3242,3.84149 30.8859,2.67317 8.0594,-0.60508 28.3295,-0.84558 47.5483,-0.56416 31.6242,0.46308 34.1081,0.63522 44.3608,3.07424 5.9735,1.42103 12.2735,3.39103 14,4.37779 6.9596,3.97751 10.3795,17.97444 11.3029,46.26055 0.8718,26.70238 -1.6385,39.19106 -8.7183,43.37319 -2.0686,1.22197 -6.6418,2.14531 -13.7713,2.78051 -24.1537,2.15196 -56.4496,6.15717 -68.1741,8.4547 -28.1176,5.50989 -57.9182,17.25941 -78.7271,31.03983 -13.0432,8.63765 -13.4627,10.41001 -4.1531,17.54626 3.0892,2.36803 11.5895,8.98756 18.8896,14.71006 7.3001,5.72251 16.0218,12.32787 19.3817,14.67858 28.8852,20.20923 35.6919,23.54535 51.6132,25.29687 8.6628,0.95301 21.7838,0.39808 32.4563,-1.37269 65.069,-10.79612 112.8734,-15.03998 141.5394,-12.56523 24.1552,2.08532 42.4264,4.09606 46,5.06226 9.2605,2.50379 15.0637,11.83891 19.5792,31.49566 2.4769,10.78212 2.7613,13.92831 2.8025,31 0.052,21.36659 -1.67,31.37428 -7.4295,43.18844 -5.1262,10.51513 -8.6568,11.741 -38.2439,13.27873 -30.693,1.59521 -57.6032,5.44706 -78.2083,11.19451 -13.0781,3.64792 -14.5,4.31697 -14.5,6.82261 0,5.17239 14.405,11.35008 32.632,13.99445 20.7582,3.0116 40.801,8.15161 69.368,17.7896 35.3394,11.92285 50.5971,18.39635 66.4569,28.19604 3.3237,2.05371 9.6431,5.65413 14.0431,8.00093 15.8491,8.45336 18.0343,12.72169 17.9363,35.03469 -0.067,15.3425 -1.0876,23.2827 -5.075,39.5 -3.2998,13.42095 -11.0092,29.2431 -17.3271,35.56101 -8.1174,8.11747 -12.8088,7.98285 -37.039,-1.06281 -21.5231,-8.03503 -36.6463,-12.55081 -50.2139,-14.99388 -13.3951,-2.41199 -14.2087,-2.4341 -16.2025,-0.44031 -1.4186,1.41868 -1.4125,1.86006 0.066,4.75 0.8967,1.75229 6.1684,9.26099 11.715,16.68599 24.8106,33.21349 40.9906,63.76291 52.4335,99 9.3447,28.7757 11.5235,41.8699 11.4816,69 -0.034,22.1078 -1.6868,33.8988 -7.6516,54.589 -4.438,15.3944 -10.3593,28.8239 -19.5779,44.4024 -12.4548,21.0475 -13.8913,25.6211 -16.5622,52.7346 -5.4514,55.3396 -20.1429,99.3783 -50.9661,152.774 -37.7754,65.4391 -86.0964,127.8684 -153.6327,198.4891 -19.4916,20.3818 -55.7958,55.3165 -75.8849,73.0223 -44.2307,38.9833 -98.8835,74.9922 -130.5,85.9821 -12.353,4.2939 -30.3025,8.7129 -40.4738,9.9641 -11.1745,1.3746 -33.5126,1.1616 -43.5262,-0.4152 z M 820,1729.0549 c 37.88923,-8.1249 70.56734,-26.6051 93.94422,-53.1273 23.18178,-26.301 37.63991,-55.2425 44.67476,-89.4276 2.65635,-12.9082 2.87969,-15.6766 2.86396,-35.5 -0.0195,-24.6085 -1.71017,-36.7598 -8.00015,-57.5 -10.60768,-34.9771 -19.41463,-50.7126 -39.45794,-70.5 -11.92061,-11.7684 -21.96105,-18.9932 -38.05633,-27.3842 -21.30485,-11.1068 -39.24923,-15.6305 -56.34657,-14.2046 -9.92052,0.8273 -16.44417,3.5874 -21.53644,9.1119 -6.61385,7.1751 -9.77593,14.8215 -16.07347,38.868 -6.85806,26.1868 -18.48874,47.7514 -39.02966,72.3655 -11.43071,13.6974 -32.86805,30.7031 -53.47845,42.4231 -17.90829,10.1835 -34.95706,16.4948 -66.80873,24.7319 -7.6639,1.982 -25.40887,4.305 -43.1952,5.6548 -15.2725,1.159 -19.5,4.1862 -19.5,13.9634 0,10.2663 12.95335,34.4627 29.73296,55.5401 22.37201,28.1022 64.54539,57.9616 100.20341,70.9454 19.60689,7.1392 47.48721,14.0922 64.05966,15.9756 4.12718,0.4691 18.30397,0.732 31.50397,0.5842 20.43516,-0.2287 25.55962,-0.6031 34.5,-2.5202 z m 335.5421,-771.34162 c 18.0711,-16.97145 33.9124,-28.84404 71.4126,-53.52172 44.4959,-29.28126 59.9399,-41.74864 78.5709,-63.42742 10.7221,-12.47609 19.2925,-24.69172 25.7935,-36.76414 5.7511,-10.68005 13.2534,-30.01298 15.7127,-40.49111 2.7718,-11.80903 5.7595,-35.62592 6.9634,-55.50889 2.7797,-45.90874 10.3977,-76.68671 26.4841,-107 12.845,-24.20515 20.1069,-34.23651 38.9366,-53.78618 24.6016,-25.54226 61.7099,-46.8046 102.2193,-58.56963 25.2154,-7.32325 55.0027,-12.22087 80.8648,-13.29577 17.0515,-0.70871 17.9949,-1.15037 18.9602,-8.87584 0.844,-6.75585 -1.1838,-41.83818 -2.6404,-45.67913 -1.1717,-3.08946 -3.8787,-4.16536 -14.3198,-5.69133 -16.3159,-2.38456 -39.0907,-3.35953 -58,-2.48293 -10.45,0.48445 -27.1,0.88081 -37,0.88081 -17.7107,0 -18.0921,-0.0452 -23.7296,-2.81356 -6.9032,-3.38988 -10.3861,-7.4168 -16.2863,-18.83019 C 1457.7523,369.16249 1451,333.59117 1451,294.48208 c 0,-10.22913 -0.434,-18.4245 -1.0352,-19.54782 -1.5515,-2.89903 -7.2398,-2.46942 -18.639,1.4077 -12.642,4.29981 -18.1865,6.77813 -23.7912,10.63421 -8.2483,5.675 -7.9582,3.89132 -8.6249,53.02383 -0.4661,34.34258 -0.9379,45.32537 -2.2414,52.17094 -3.6442,19.13939 -10.9696,36.49895 -19.3219,45.78869 -6.4315,7.15336 -15.7279,13.63151 -34.8464,24.28252 -28.8005,16.04489 -33.66,19.27482 -53.5,35.55974 -17.9061,14.69753 -29.5634,25.73983 -39.7975,37.69811 -12.5731,14.69123 -19.6372,25.63797 -29.6846,46 -17.1277,34.71111 -23.2551,57.32652 -24.043,88.74016 C 1195.117,684.50495 1194.8314,686 1192.464,686 c -4.5929,0 -8.5071,-17.22527 -8.5651,-37.69275 -0.09,-31.69145 10.013,-69.98956 25.2353,-95.66412 9.8966,-16.69214 25.6302,-36.70246 41.5796,-52.88191 10.7165,-10.87102 15.6771,-15.29011 30.2862,-26.97994 7.7274,-6.18329 10,-9.88837 10,-16.30344 0,-6.49928 -0.2256,-7.13089 -14.8859,-41.6693 -13.353,-31.45879 -25.0745,-61.45284 -31.9046,-81.64055 -3.6626,-10.82537 -4.9461,-13.49754 -6.8265,-14.21248 -3.1759,-1.20748 -24.6428,4.7421 -38.3621,10.63212 -19.2995,8.28576 -18.7337,7.27303 -15.9441,28.54072 2.5757,19.63677 3.1035,48.46293 1.0962,59.87165 -5.0818,28.88441 -14.7328,49.37916 -42.0812,89.36345 -16.0452,23.45856 -23.2029,35.38366 -30.0877,50.12774 -17.674,37.84948 -26.2541,77.21261 -24.7097,113.36197 1.2711,29.75309 6.0938,54.14073 17.5302,88.64684 10.4296,31.46853 16.0348,43.94102 18.9402,42.14536 0.5316,-0.32855 3.0889,-4.37878 5.6828,-9.00051 8.8121,-15.70087 20.9241,-26.75401 45.996,-41.97486 16.4748,-10.0017 28.1497,-19.27001 37.3738,-29.67003 7.6567,-8.63275 10.9581,-14.34246 17.635,-30.49996 6.323,-15.30101 9.9132,-12.23253 5.5698,4.7604 -6.9236,27.08813 -23.7049,46.66343 -60.2141,70.2396 -16.9428,10.941 -26.8147,21.92879 -34.8544,38.79427 -6.0012,12.58916 -7.4187,19.14514 -7.3961,34.20573 0.015,10.1105 0.614,15.90404 2.6937,26.06543 5.7902,28.28975 6.2322,58.40418 1.3095,89.21172 -2.1853,13.6768 -2.5081,17.58139 -1.5489,18.73714 0.6768,0.81553 1.7797,1.13461 2.4985,0.72285 0.7078,-0.40543 8.3721,-7.39116 17.0317,-15.52386 z m 677.8505,-64.59458 c 2.5286,-2.79413 8.2699,-19.64835 10.6179,-31.17038 2.654,-13.02321 2.4878,-28.62689 -0.3231,-30.3422 -2.379,-1.4517 -4.7873,1.40469 -7.7439,9.18488 -5.2856,13.90833 -9.7629,46.94087 -7.0497,52.01048 1.4388,2.68843 2.298,2.74902 4.4988,0.31722 z m -54.0733,-208.58089 c 3.81,-3.80995 5.1463,-32.63705 2.1806,-47.03781 -4.7959,-23.2875 -11.6912,-12.55723 -11.888,18.5 -0.089,13.96652 1.3662,22.26521 4.8295,27.55095 1.8511,2.82507 2.8397,3.02508 4.8779,0.98686 z"
         id="path5" />
      <path
         style="fill:#6b928a"
         d="m 757.5,1755.849 c -5.5,-0.4818 -17.76519,-2.4578 -27.25599,-4.3911 -57.67251,-11.748 -109.35992,-39.91 -149.77773,-81.6067 -19.15562,-19.7617 -26.7699,-31.0694 -44.61424,-66.2549 -10.61052,-20.9218 -15.04215,-27.0658 -21.58042,-29.9189 -2.07439,-0.9052 -12.32162,-4.0936 -22.77162,-7.0853 -58.56293,-16.7661 -108.1003,-48.1065 -141.65613,-89.6203 -24.18413,-29.9195 -43.67305,-70.7372 -49.40388,-103.4718 -1.83331,-10.4719 -2.39143,-33.1006 -1.46753,-59.5 0.67331,-19.239 -0.10547,-20.7413 -18.47246,-35.6343 -29.6597,-24.0498 -50.34219,-52.4734 -64.11769,-88.1159 -9.27518,-23.9984 -13.12851,-44.2086 -14.06133,-73.7498 -1.50763,-47.7449 7.22909,-87.5466 28.64557,-130.5 13.39768,-26.8707 22.33444,-39.7305 41.97327,-60.39866 C 287.52846,910.24808 292,903.04158 292,894.8833 c 0,-2.63849 -1.59157,-11.00412 -3.53683,-18.59028 -5.53795,-21.59704 -6.77859,-30.7253 -6.8354,-50.29302 -0.0771,-26.55806 2.59331,-42.69096 11.53923,-69.71239 14.77774,-44.63659 46.81525,-85.31189 87.86898,-111.55976 12.96525,-8.28938 14.46991,-12.96902 11.0054,-34.22785 -4.18477,-25.6785 -3.7971,-51.52838 1.11588,-74.40817 7.05655,-32.86234 27.01186,-69.10759 51.52733,-93.59021 35.71785,-35.66997 75.78019,-54.37969 125.31541,-58.52418 15.47767,-1.29498 20.90703,-2.96859 25.09156,-7.7345 1.75165,-1.99502 6.87502,-11.30332 11.38526,-20.68512 15.06482,-31.33644 24.38958,-45.04591 44.6319,-65.61881 42.59758,-43.29325 108.59525,-65.41853 171.04954,-57.34323 25.07884,3.24268 46.3027,10.24633 66.37851,21.90421 27.71472,16.09374 42.84792,30.72807 59.97715,58.00001 27.93722,44.47964 36.95328,106.79878 24.37784,168.5 -5.87752,28.83797 -16.19645,61.82038 -26.78512,85.61331 -8.71025,19.57208 -15.81754,31.93146 -33.00036,57.38669 -11.43075,16.9339 -14.29011,20.55446 -16.43723,20.81306 -2.09556,0.25238 -2.72764,-0.19834 -3.26159,-2.32574 -0.52651,-2.09779 1.62164,-7.32028 10.47768,-25.47289 6.12699,-12.55875 14.32263,-30.63717 18.21254,-40.17426 27.13029,-66.51671 36.48484,-129.62976 27.32272,-184.34017 -4.18873,-25.01242 -14.98204,-53.44429 -26.98357,-71.08041 -22.96453,-33.74612 -56.10995,-55.63571 -99.20652,-65.51703 -18.14083,-4.15939 -48.52411,-3.5985 -69.73031,1.28726 -26.98922,6.21813 -57.1556,21.61711 -78.74792,40.1983 -24.42314,21.01725 -49.32253,62.17805 -49.18554,81.30789 0.0479,6.69474 2.37729,10.00441 13.17327,18.71723 13.31081,10.7424 22.03547,22.53071 19.57963,26.455 -1.88189,3.00715 -6.00812,2.36994 -17.70622,-2.73435 -6.29421,-2.74639 -15.19272,-6.17764 -19.77446,-7.62501 -22.42607,-7.08439 -50.27503,-7.26019 -79.34942,-0.50089 -17.39222,4.04339 -33.64072,11.40871 -52.48934,23.793 -21.42522,14.07723 -45.26152,40.73658 -57.34303,64.13444 -15.41718,29.85794 -20.71274,63.8638 -15.06948,96.76993 2.57041,14.98822 6.67212,22.5656 13.6397,25.1976 1.61828,0.6113 11.98688,0.98061 25.5,0.90825 24.5233,-0.13131 34.10097,0.79789 49.27281,4.7803 23.07019,6.05563 50.06903,23.45777 65.13309,41.98164 10.7764,13.25144 12.78479,17.59026 9.43083,20.3738 -1.95211,1.62011 -4.51902,0.17706 -12.06392,-6.78201 -19.0633,-17.58311 -42.9049,-29.84307 -68.54333,-35.24673 -12.3871,-2.61075 -34.99721,-3.12287 -46.95667,-1.06356 -39.44909,6.79276 -70.7408,23.32085 -98.00956,51.76804 -14.28496,14.9023 -25.33337,32.57304 -34.85477,55.74646 -9.34215,22.73715 -13.13098,42.11038 -13.12883,67.13085 0.002,22.89219 3.09105,37.05547 11.74796,53.86374 12.15622,23.60255 26.62603,34.64048 52.7452,40.23537 9.02814,1.93388 28.87332,1.93614 38,0.004 6.14535,-1.30077 7.27471,-1.30315 9.25,-0.0195 3.01087,1.95663 2.83636,3.67865 -0.79153,7.81059 -3.81994,4.35067 -9.37249,7.60079 -18.95847,11.09711 -5.97685,2.17996 -9.8355,2.83876 -19,3.24394 -13.88356,0.61382 -22.37689,-0.90186 -41.03872,-7.32357 -17.97213,-6.18437 -23.51146,-5.88665 -34.93875,1.87785 -27.52788,18.70437 -55.15472,62.78393 -66.56717,106.21017 -7.50304,28.5503 -10.64319,58.9102 -8.62648,83.4034 2.1778,26.4497 8.21564,49.9235 18.25819,70.9837 9.8479,20.652 20.14829,35.3163 34.54933,49.1868 11.30921,10.8926 21.00143,17.7789 36.3636,25.8363 20.16334,10.5756 21.14538,12.2667 15.6417,26.9347 -17.36076,46.2687 -9.66311,97.1426 22.02217,145.545 9.23694,14.1103 16.16916,22.6178 28.25056,34.6704 29.7308,29.6598 68.47115,52.1167 110.36927,63.9784 29.50218,8.3524 54.06226,11.5901 80.7163,10.6408 38.18467,-1.36 66.47382,-8.1354 96.74175,-23.1701 23.69292,-11.7688 38.0322,-22.2831 56.79967,-41.6482 25.71914,-26.5382 35.97045,-50.8677 37.77958,-89.6624 0.54206,-11.6241 0.10456,-12.1988 -9.28647,-12.1988 -19.89022,0 -40.509,-3.7757 -68.5363,-12.5504 -40.16266,-12.574 -55.15475,-15.1351 -82.82287,-14.1484 -23.52272,0.8389 -44.35946,5.8312 -65.30466,15.6464 -16.72,7.8353 -33.23447,21.5881 -44.71613,37.2385 -6.59503,8.9895 -7.32686,9.5702 -9.42173,7.4753 -1.36398,-1.364 -1.40306,-2.151 -0.29141,-5.8683 6.31398,-21.1139 30.26329,-45.239 57.317,-57.7377 23.96321,-11.0709 49.06933,-16.0526 80.90978,-16.0546 14.95632,-9e-4 16.83179,-0.3361 16.83179,-3.0086 0,-2.0218 -24.43129,-35.0798 -35.35453,-47.8381 -15.78732,-18.4396 -30.69983,-28.9132 -53.54435,-37.6062 -18.35126,-6.9831 -32.15034,-9.2906 -63.43933,-10.6082 -34.89343,-1.4694 -50.27656,-4.5222 -70.50531,-13.9918 -20.54793,-9.619 -37.33248,-27.109 -48.13231,-50.1553 -9.90625,-21.1393 -12.12799,-47.2634 -6.06313,-71.2926 6.09169,-24.1355 27.62389,-51.5151 34.83896,-44.3 2.14776,2.1478 1.30152,4.3893 -5.44404,14.4201 -17.64126,26.2331 -21.71981,48.1006 -14.33904,76.8799 2.86386,11.1669 11.75384,28.7295 18.7729,37.0868 9.80125,11.6699 21.58833,20.0491 36.57172,25.9979 12.90716,5.1246 22.38282,6.4367 53.39128,7.3936 66.31903,2.0466 95.12533,13.0281 132.67551,50.5782 5.14894,5.149 14.74501,16.4676 21.3246,25.1526 6.5796,8.685 15.07223,18.7159 18.87252,22.2909 30.39162,28.59 65.0438,41.4516 106.77734,39.632 43.09164,-1.8789 61.74321,-1.8314 76.51949,0.1951 7.93226,1.0878 15.01976,1.7486 15.75,1.4684 2.12921,-0.817 1.53845,-4.6301 -1.29387,-8.3512 -6.40281,-8.4121 -14.83741,-29.6083 -20.95122,-52.6506 -4.62695,-17.4385 -8.57845,-28.6454 -13.67562,-38.7858 -18.3174,-36.4408 -48.80442,-59.077 -88.94699,-66.0418 C 723.73736,1192.7194 721,1191.6585 721,1189.5034 c 0,-4.1563 22.45641,-3.9075 39.00262,0.432 27.38055,7.1809 54.64256,26.6931 70.41545,50.3983 7.55699,11.3575 17.93789,35.4661 26.66716,61.932 8.74486,26.5131 14.88145,38.8778 25.42744,51.2343 7.25369,8.499 22.41153,23.6945 35.41217,35.5003 16.87681,15.3257 26.71279,26.7089 32.83477,37.9997 1.64019,3.025 6.2347,10.8457 10.21003,17.3792 3.97533,6.5336 9.38401,16.6586 12.01928,22.5 5.927,13.138 19.1208,54.032 23.0389,71.4089 3.00943,13.3468 5.37918,18.974 8.22088,19.5213 1.1693,0.2252 1.9445,-0.8133 2.6991,-3.6156 1.3728,-5.098 0.4362,-252.9081 -1.0287,-272.1938 -1.5536,-20.4545 -3.5678,-32.4503 -9.00893,-53.6542 -6.7434,-26.2788 -9.39742,-33.4723 -21.36117,-57.898 -11.81907,-24.1302 -17.18623,-31.872 -35.78518,-51.6177 -34.63347,-36.7689 -85.68903,-62.4338 -139.80105,-70.2759 -26.58943,-3.8535 -65.02801,-4.495 -93.46277,-1.5599 -30.4727,3.1454 -67.56448,12.8312 -101.73044,26.565 -24.50909,9.8519 -40.4249,17.4514 -56.93958,27.1877 -16.30967,9.6154 -22.82998,11.4346 -22.82998,6.3698 0,-5.9176 33.03583,-29.8591 64,-46.3816 5.775,-3.0816 16.35,-8.1221 23.5,-11.2013 16.65168,-7.171 17.5,-7.6154 17.5,-9.1677 0,-1.804 -1.49589,-2.4604 -18.51677,-8.1252 C 573.54285,1019.614 546.46406,1003.5762 522.5,979.53944 507.20025,964.19327 498.96344,952.951 490.96654,936.5 479.40705,912.72014 475,893.5369 475,867 c 0,-19.37031 2.23872,-33.65968 8.1045,-51.7297 4.56297,-14.05657 10.03054,-25.74393 16.11635,-34.44998 4.29797,-6.14846 6.26903,-7.48857 8.4059,-5.71513 1.98598,1.64822 1.83188,2.28683 -3.09633,12.83147 -10.76515,23.03367 -14.44644,38.30208 -15.23485,63.18763 -0.66867,21.10609 0.82823,32.28157 6.69564,49.98799 19.5157,58.89368 72.6036,100.35172 147.60833,115.27202 25.83399,5.1391 24.25413,5.0397 81.40046,5.1192 46.22086,0.064 56.29584,0.3392 66.32167,1.8098 18.45629,2.7071 30.93529,5.3135 48.73506,10.1789 18.02498,4.927 19.94327,5.2181 19.94327,3.0267 0,-1.7516 -22.84962,-24.8928 -42.16384,-42.70193 C 802.64864,979.81294 793.09745,972.8274 769.5,958.46493 746.3721,944.38824 729.62615,933.26311 720.62319,925.99372 711.03709,918.25349 694.58811,900.19397 687.83936,890 c -9.45064,-14.27517 -16.98778,-32.65694 -21.03945,-51.31159 -2.87295,-13.22755 -3.06949,-39.85115 -0.40742,-55.18841 1.74276,-10.04076 8.98158,-32.99905 18.57631,-58.91573 8.5977,-23.22356 11.17036,-34.62413 11.75338,-52.08427 0.76171,-22.81133 -3.21184,-41.71938 -12.89471,-61.35921 -4.24019,-8.60041 -6.48425,-11.75214 -13.21739,-18.56348 -12.5456,-12.6913 -23.31422,-18.82839 -38.88905,-22.16308 -10.31475,-2.20846 -25.35747,-2.17938 -36.40479,0.0704 -7.58304,1.54426 -9.45675,1.64368 -10.75,0.57038 -5.17057,-4.2912 4.22671,-12.63832 19.93376,-17.70613 16.79474,-5.41876 36.82717,-2.78446 57.2594,7.5297 25.82828,13.03807 45.45506,43.62923 51.94613,80.96549 1.1383,6.54745 1.68994,15.45063 1.71356,27.65596 0.0519,26.84093 -2.62419,39.28114 -17.43318,81.03974 -10.53881,29.71747 -11.95993,35.67379 -12.63581,52.96026 -0.88861,22.7275 2.46331,39.06494 12.10492,59 10.62225,21.96268 22.51373,35.91787 44.75005,52.51625 13.7502,10.26388 43.83655,27.56549 46.29444,26.62231 2.29995,-0.88257 1.81979,-4.10206 -2.54762,-17.08199 -7.70602,-22.90228 -11.36067,-46.51539 -11.30711,-73.05657 0.0752,-37.25312 5.77209,-61.13087 27.73662,-116.25398 5.24212,-13.15582 11.13021,-28.3806 13.08465,-33.83285 7.81501,-21.80123 16.43021,-56.2105 19.01991,-75.96583 5.043,-38.47022 -2.63277,-83.62654 -20.21895,-118.94734 -7.52889,-15.12134 -14.83368,-25.17295 -27.41749,-37.72727 -13.49507,-13.46344 -14.77696,-15.27386 -12.45725,-17.59357 1.45002,-1.45002 1.95648,-1.40745 5.84762,0.49148 12.05475,5.88288 29.57506,23.19507 41.3202,40.82936 12.2879,18.44919 19.81296,36.10356 25.78773,60.5 7.71677,31.50943 7.5845,74.07546 -0.3512,113.01658 -4.2626,20.91694 -18.19873,65.89875 -31.29778,101.02024 -10.9872,29.45912 -14.95354,45.69853 -16.72851,68.49159 -3.52072,45.21071 10.52485,97.30669 35.79196,132.75486 12.77861,17.92758 30.69795,38.13 62.07718,69.9863 53.73843,54.5555 67.83847,69.5879 75.84226,80.8571 15.59176,21.9531 22.83023,35.1917 31.64337,57.8733 5.8884,15.1543 7.928,19 10.0766,19 2.6189,0 4.4687,-3.7924 7.5601,-15.5 5.4311,-20.5677 11.9115,-42.1306 14.9425,-49.7193 7.8661,-19.6945 22.9754,-48.324 38.1331,-72.2555 13.9043,-21.9525 29.7892,-54.0563 35.8854,-72.52517 4.345,-13.16362 9.6829,-35.44547 11.5296,-48.12834 3.0812,-21.16054 1.5927,-53.2532 -3.4666,-74.74391 C 1116.4075,852.17588 1100.971,805.52 1095.7835,793 c -14.6716,-35.40928 -22.2067,-59.72863 -26.7615,-86.37149 -11.5199,-67.38421 3.4277,-130.7436 45.5626,-193.12851 18.9782,-28.09915 32.5324,-48.91565 37.1142,-57 8.0996,-14.29127 12.2499,-29.83198 14.8321,-55.53869 0.7817,-7.78165 -1.0184,-36.13848 -3.1224,-49.18762 -0.8223,-5.10053 -1.7561,-12.24076 -2.075,-15.86719 l -0.5798,-6.59349 3.8138,-3.81389 c 6.6501,-6.65005 34.5676,-18.00152 60.4325,-24.57226 18.8684,-4.79334 25.0688,-3.76868 29.325,4.84613 2.227,4.50759 10.7523,25.17892 21.5394,52.22701 2.7419,6.875 9.5134,23.075 15.0478,36 18.1988,42.50093 23.4619,51.37507 31.2164,52.63345 2.9367,0.47656 6.021,-0.7308 20.428,-7.99663 25.2793,-12.74902 29.4598,-17.97083 33.9823,-42.44682 3.7637,-20.36876 4.5648,-33.23404 4.2513,-68.26864 -0.3365,-37.60003 0.088,-40.34852 7.4595,-48.3277 5.4341,-5.88177 18.1197,-13.4135 31.2176,-18.53451 14.1622,-5.53716 20.4103,-7.04507 32.066,-7.73879 9.7194,-0.57847 10.126,-0.51745 12.9944,1.94982 l 2.9611,2.54699 0.6707,26.84141 c 0.535,21.40496 1.2068,30.38587 3.3171,44.34142 2.9593,19.57041 7.5681,42.17973 9.9884,49 2.7733,7.81534 7.5211,13.81241 13.1162,16.56748 6.1466,3.02668 8.3709,3.10249 57.9188,1.97422 38.1511,-0.86875 52.4863,-0.1197 66.581,3.47898 10.2893,2.6271 13.4927,4.25428 15.3158,7.77978 4.4703,8.64452 7.7315,42.95708 5.8203,61.23647 -2.0332,19.4451 -4.2413,21.57264 -23.9145,23.04194 -15.3362,1.14539 -56.6802,6.37667 -67.2543,8.5097 -23.7921,4.79946 -56.509,17.67834 -74.073,29.15857 -15.2898,9.99379 -17.8755,13.98176 -12.2253,18.85507 7.6358,6.58586 35.4398,28.1414 40.25,31.20457 3.025,1.92634 8.2,5.58769 11.5,8.13635 23.4467,18.10836 41.5539,23.21685 69.5061,19.60943 6.8716,-0.88683 20.8189,-2.92123 30.9939,-4.52089 39.5872,-6.22367 69.5132,-9.02364 96.494,-9.02825 22.8604,-0.004 61.676,3.17409 68.2276,5.58609 8.2684,3.04406 12.8836,11.58359 16.856,31.18896 5.7397,28.32798 2.2631,63.93833 -7.3586,75.3731 -4.3114,5.12378 -7.4911,5.83616 -33.0631,7.4073 -38.3881,2.35856 -76.9402,8.82865 -91.8171,15.4094 -4.1098,1.81795 -4.4442,2.23772 -4.1542,5.21415 0.241,2.47369 1.2587,3.88758 4.3154,5.99581 5.6323,3.8846 18.1205,8.51758 25.0969,9.3107 22.729,2.58394 41.4225,7.21989 75.9031,18.82378 29.8263,10.03754 44.3412,15.96876 57.0872,23.32738 4.3521,2.51254 12.8628,7.29717 18.9128,10.6325 6.05,3.33534 12.254,7.21346 13.7867,8.61805 4.3381,3.97562 6.0517,11.48617 5.9572,26.10936 -0.1369,21.17295 -4.4981,42.59023 -11.7087,57.5 -5.8319,12.05889 -10.3609,17.81299 -15.7029,19.95043 -5.6927,2.27776 -9.9602,1.55062 -25.6715,-4.37414 -30.9117,-11.65685 -51.9057,-17.29543 -65.0342,-17.46691 -13.984,-0.18267 -13.7439,1.49176 3.508,24.4596 27.3262,36.38004 45.2339,71.76387 56.8208,112.27252 6.3552,22.2183 7.9194,35.1565 7.2442,59.923 -0.5937,21.7822 -1.9371,30.6029 -7.8028,51.2355 -4.1801,14.7036 -9.1487,25.9423 -18.2421,41.2625 -13.0286,21.9499 -14.4514,26.3184 -17.1767,52.7375 -3.7399,36.2553 -11.5903,69.9365 -22.4486,96.3132 -14.8971,36.1876 -38.6797,77.8029 -69.8284,122.1868 -9.5963,13.6738 -12.2795,17.2323 -33.9309,45 -28.0236,35.9399 -78.8914,91.1816 -118.7701,128.9827 -46.4413,44.0217 -70.8452,63.775 -109.6613,88.763 -27.3835,17.6282 -34.8236,21.6114 -52.4455,28.0772 -37.6923,13.83 -69.8719,15.7104 -104.4974,6.1063 -19.2363,-5.3356 -30.8562,-12.181 -47.0322,-27.7071 -25.5301,-24.5045 -38.7096,-51.6468 -44.3512,-91.3391 -3.1873,-22.4245 -1.1409,-45.2621 5.9641,-66.5605 5.7106,-17.1185 9.9323,-26.1193 18.1149,-38.6225 12.2321,-18.6907 40.7294,-44.2988 51.5745,-46.3456 2.9979,-0.5658 1.7615,0.9223 -12.2619,14.7582 -17.0393,16.8113 -21.2012,22.4273 -30.6774,41.395 -12.2546,24.5288 -16.4248,41.1955 -16.5123,65.9924 -0.093,26.4695 3.5578,44.1867 13.1553,63.8368 15.5818,31.9024 32.2371,49.3252 59.4669,62.2071 16.3667,7.7428 22.3817,8.9668 43.6635,8.8851 26.2885,-0.1008 40.7992,-3.4966 65.5648,-15.3433 25.2151,-12.0617 40.4337,-21.6439 72.3298,-45.5416 34.8879,-26.1392 51.4535,-40.7218 92.4793,-81.4087 58.8831,-58.3967 93.0186,-98.0715 135.3437,-157.3066 14.9045,-20.8591 39.2971,-60.8063 49.2484,-80.653 13.582,-27.0875 21.1121,-46.4926 26.5091,-68.314 5.2359,-21.1702 6.8439,-34.0775 6.2118,-49.8618 -0.6298,-15.7299 -2.3343,-23.2479 -7.9349,-35 -7.2331,-15.1774 -15.8505,-21.3926 -49.9074,-35.9949 -21.6011,-9.2617 -35.1286,-18.4588 -52.9584,-36.0051 -17.4048,-17.1282 -25.1203,-29.3492 -33.1631,-52.5289 -6.9557,-20.0466 -8.1239,-26.9182 -8.1549,-47.9711 -0.023,-15.4171 0.3071,-20.097 1.7494,-24.8175 3.0809,-10.08333 4.1187,-7.06116 4.7727,13.8984 0.3711,11.8931 1.2098,21.7044 2.2584,26.4191 6.0446,27.1794 19.2049,50.5037 40.6513,72.0478 14.778,14.8453 25.2863,21.2453 55,33.4973 18.4546,7.6095 28.5739,13.1213 40.8045,22.2255 13.8207,10.2879 18.9243,10.4388 28.0137,0.8282 7.9912,-8.4496 19.0061,-33.1868 24.5867,-55.2171 9.8942,-39.0582 0.9801,-88.1089 -25.5403,-140.53728 -7.4547,-14.73722 -26.6823,-44.59825 -36.7346,-57.04994 -8.0973,-10.02993 -20.7854,-21.76843 -26.7485,-24.74655 -8.2704,-4.13046 -17.9871,-2.29947 -35.8815,6.76146 -18.4069,9.32041 -38.5,34.23649 -38.5,47.74117 0,8.95968 6.5222,15.20176 25.75,24.64397 6.7375,3.30859 12.25,6.4803 12.25,7.04823 0,2.65849 -26.4324,-3.36111 -36.481,-8.30803 -11.3523,-5.58869 -16.519,-12.30596 -16.519,-21.47629 0,-8.80281 8.4186,-29.12163 16.0529,-38.745 5.4784,-6.90569 19.1775,-19.03982 28.4471,-25.19739 20.4644,-13.59396 42.8737,-19.55061 68.4157,-18.18566 20.6623,1.10419 57.6225,9.62587 74.9114,17.27185 6.2876,2.78068 9.4126,3.01883 11.209,0.85424 0.8104,-0.97644 1.5749,-6.76292 2.0809,-15.75 0.997,-17.70918 2.2837,-22.56114 10.3932,-39.19021 3.5694,-7.31927 6.4898,-14.40125 6.4898,-15.73771 0,-1.33646 -1.0125,-3.36153 -2.25,-4.50016 -6.0403,-5.55771 -53.9267,-26.27317 -77.75,-33.63433 -6.325,-1.95436 -21.175,-5.62195 -33,-8.15019 -42.8419,-9.15978 -56.1354,-13.64477 -79.9845,-26.98535 -2.4665,-1.37969 -6.0768,-2.50853 -8.0228,-2.50853 -12.4641,0 -57.3469,25.45754 -82.0146,46.51868 -13.578,11.59283 -29.6786,31.98145 -37.0225,46.88243 -10.7148,21.74081 -11.7888,44.87469 -2.8611,61.62483 3.26,6.11631 10.384,13.99787 16.2868,18.0185 7.3551,5.00989 3.5397,4.92885 -7.0745,-0.15027 -9.7301,-4.65606 -21.8371,-18.77544 -26.4007,-30.78889 -2.7033,-7.11642 -3.6149,-20.82538 -1.9481,-29.29743 3.091,-15.71109 12.2953,-37.43562 21.5689,-50.90783 6.7206,-9.76342 29.9331,-33.27728 42.4731,-43.02444 14.0869,-10.94959 29.9191,-20.45272 53.9462,-32.38074 20.4383,-10.14644 30.6145,-13.70331 58.85,-20.56981 27.6843,-6.73244 41.1556,-9.08535 65.2038,-11.38862 9.075,-0.86918 18.2051,-1.75499 20.2892,-1.96847 7.4004,-0.75805 7.956,-2.9481 4.7108,-18.56794 -3.2508,-15.64696 -2.5232,-38.5471 1.6299,-51.29809 2.8895,-8.87131 0.8181,-10.95043 -12.6299,-12.67716 -9.694,-1.24471 -48.9492,-1.25545 -64.868,-0.0177 -12.9921,1.01015 -40.1129,4.6694 -78.632,10.60936 -19.7561,3.04656 -24.763,3.48587 -35.5,3.1149 -16.0318,-0.55391 -22.7095,-2.35181 -39.7733,-10.70857 -15.4085,-7.54608 -23.3389,-12.70317 -37.3691,-24.30107 C 1466.3145,573.91325 1448.6041,563 1441.2473,563 c -2.7503,0 -5.1299,0.85935 -7.8473,2.83391 -13.1649,9.56613 -33.7329,39.31232 -42.7431,61.81669 -10.6492,26.59805 -16.0661,50.71191 -18.1618,80.8494 -2.769,39.81787 -7.4677,62.62591 -18.9704,92.08367 -7.6889,19.69073 -15.7479,33.20931 -30.0048,50.33158 -22.3074,26.79081 -39.625,41.41478 -86.1128,72.71848 -27.6434,18.61433 -36.3801,25.13006 -54.4109,40.57859 -25.2168,21.60549 -44.4965,43.43628 -69.5807,78.78768 -23.7688,33.4975 -40.0894,61.5437 -50.2973,86.4338 -11.1745,27.2468 -22.4176,68.5482 -27.5122,101.0662 -4.5697,29.1675 -4.7742,35.7355 -5.3098,170.5 -0.5322,133.9018 -0.4386,137.5592 3.5016,136.8004 2.5645,-0.4939 3.7819,-3.8797 9.1463,-25.4386 2.7182,-10.924 6.8027,-25.4868 9.0766,-32.3618 13.9523,-42.1833 35.4364,-84.7182 59.6111,-118.0196 19.296,-26.5809 38.05,-56.7276 47.0168,-75.5789 2.9035,-6.1041 8.6895,-21.1791 12.8579,-33.5 14.6835,-43.4016 32.758,-74.2878 57.6422,-98.5004 26.8423,-26.1177 56.0114,-40.1606 114.8943,-55.3134 19.8812,-5.1162 30.1949,-8.655 40.7421,-13.9792 8.8158,-4.4502 25.8323,-16.1202 33.0032,-22.6338 6.0656,-5.5096 15.9666,-17.5647 21.4189,-26.079 3.7044,-5.7847 11.8865,-22.3874 15.8421,-32.1457 1.8393,-4.5375 3.7056,-8.25 4.1474,-8.25 1.0683,0 1.0956,-0.2486 -1.2247,11.1373 -4.6646,22.8896 -16.8178,44.4598 -35.7817,63.5075 -21.3127,21.4069 -44.8493,33.4502 -91.4801,46.8088 -12.2156,3.4995 -26.0352,8.0338 -30.7102,10.0761 -12.9608,5.6623 -32.7632,16.9167 -42.1123,23.9342 -13.5223,10.1497 -29.3171,27.2482 -39.8879,43.1801 -12.6096,19.0048 -18.6788,31.9471 -27.3658,58.356 -7.9461,24.1566 -13.8646,38.8383 -21.8112,54.1057 -5.2736,10.1319 -5.9073,14.1673 -2.3059,14.6833 1.1093,0.159 8.0843,-2.5954 15.5,-6.1208 36.5371,-17.3696 54.8298,-21.4196 91.9831,-20.365 27.0488,0.7678 39.1274,3.3627 85.3625,18.3387 37.379,12.1075 59.5679,16.28 90.6375,17.0437 17.2334,0.4237 22.6532,0.1833 34.0126,-1.5085 30.9811,-4.6141 49.8944,-10.4861 71.2326,-22.1155 25.5121,-13.9042 41.7521,-26.9865 52.4469,-42.249 5.9031,-8.4244 7.869,-10.4186 6.3612,-6.4529 -8.3085,21.8531 -34.381,47.7577 -62.0533,61.654 -38.2347,19.2003 -67.8801,26.3233 -109.5,26.3098 -32.5018,-0.011 -59.0405,-4.9352 -104,-19.2986 -8.8,-2.8113 -22.75,-6.5469 -31,-8.3011 -14.3914,-3.0602 -15.9331,-3.1894 -38,-3.1848 -25.7378,0.01 -33.9113,1.2156 -54.5,8.0696 -17.6771,5.8848 -42.5945,20.0576 -60.1157,34.1935 -17.4962,14.1155 -41.895,43.679 -54.6335,66.1979 -5.5938,9.8888 -16.9095,35.39 -23.7957,53.6265 -15.8413,41.9524 -24.0895,76.3196 -30.4497,126.8735 -1.6607,13.2 -3.4634,27.15 -4.006,31 -2.3597,16.7431 -7.998,85.6068 -8.001,97.7208 0,7.2506 -2.2198,12.6125 -5.9984,14.5005 -5.9295,2.9628 -15.8862,0.4365 -17.8991,-4.5415 -0.596,-1.4739 -1.5425,-8.8606 -2.1035,-16.4149 -3.6415,-49.0416 -7.483,-85.1599 -13.4579,-126.5308 C 990.92964,1575.239 989.44117,1570 985.94957,1570 c -2.56727,0 -3.42132,2.3608 -4.88379,13.5 -2.19707,16.7344 -3.51709,21.3349 -16.47187,57.4072 -8.49675,23.6589 -22.07812,43.6737 -43.95727,64.7793 -14.64608,14.1284 -27.10875,23.2484 -42.63664,31.2011 -31.08402,15.92 -75.47803,22.9056 -120.5,18.9614 z m 51,-24.9499 c 10.58476,-1.2726 31.15677,-6.3862 40.29433,-10.016 40.39063,-16.0449 71.50416,-44.1992 92.86489,-84.0326 8.94443,-16.6795 13.6102,-29.1773 18.05065,-48.3505 5.68008,-24.5258 5.72529,-52.2419 0.12804,-78.5 -2.85693,-13.4026 -11.08303,-37.8722 -16.30436,-48.4995 -14.05373,-28.6044 -37.07999,-50.8362 -69.86128,-67.4508 -19.45038,-9.8582 -36.4707,-13.8756 -53.51746,-12.6321 -10.37462,0.7567 -16.82799,3.4193 -22.0693,9.1055 -6.61385,7.1751 -9.77593,14.8215 -16.07347,38.868 -6.85806,26.1868 -18.48874,47.7514 -39.02966,72.3655 -11.43071,13.6974 -32.86805,30.7031 -53.47845,42.4231 -17.90829,10.1835 -34.95706,16.4948 -66.80873,24.7319 -7.6639,1.982 -25.40887,4.305 -43.1952,5.6548 -15.2725,1.159 -19.5,4.1862 -19.5,13.9634 0,10.3285 13.80861,36.0087 30.21993,56.2007 18.68465,22.9891 49.8067,47.0482 79.54606,61.4937 21.36786,10.3792 52.70025,20.0826 76.81505,23.789 18.08115,2.7791 43.18438,3.1383 61.91896,0.8859 z m 330.5275,-754.56857 c 1.3599,-0.9182 9.2225,-8.24657 17.4725,-16.28526 18.1064,-17.6426 36.0325,-30.99913 79.8054,-59.4618 35.5597,-23.12219 55.4673,-39.72106 73.0349,-60.89608 16.4803,-19.86451 26.5259,-36.80684 34.5008,-58.18739 6.3794,-17.10295 10.285,-39.864 12.1829,-71 2.8391,-46.57656 10.562,-78.73975 25.9869,-108.22605 9.7287,-18.59729 18.5123,-31.387 30.9123,-45.0109 14.749,-16.20471 23.5555,-24.03612 37.5768,-33.41592 41.1084,-27.50029 94.7818,-43.72039 153.7098,-46.45109 13.39,-0.62048 14.8955,-0.87925 16.7788,-2.88391 3.0698,-3.26764 3.4622,-9.98713 1.9985,-34.22593 -1.4844,-24.58176 -1.3962,-24.35036 -9.9821,-26.19171 -18.389,-3.94373 -62.9274,-5.56378 -85.7122,-3.11771 -6.7812,0.728 -17.0083,1.08294 -23.0085,0.79854 -13.4014,-0.6352 -19.5129,-2.95851 -25.423,-9.66467 -4.348,-4.93377 -12.4776,-20.7564 -15.7418,-30.63853 -5.568,-16.85669 -10.1179,-52.70336 -10.1189,-79.72212 -8e-4,-24.36227 -0.2406,-24.57683 -20.2691,-18.14086 -19.3269,6.21051 -30.279,12.25582 -34.0197,18.778 -0.8705,1.51784 -1.378,14.22254 -1.8019,45.11286 -0.6183,45.0496 -1.2208,52.39293 -5.529,67.38803 -5.0057,17.42247 -12.5227,29.81646 -23.283,38.38873 -8.8781,7.07289 -11.9387,8.98161 -31.4386,19.60673 -21.496,11.71274 -30.8123,18.02714 -49.7607,33.72662 -18.9018,15.66086 -38.0685,34.7523 -47.5766,47.38989 -8.9879,11.94607 -19.1672,29.74306 -27.2085,47.57009 -12.4522,27.6054 -17.6745,48.5973 -18.8338,75.7056 -0.6685,15.62873 -1.7207,17.02377 -4.641,6.15298 -1.2846,-4.78171 -2.0043,-11.7316 -2.3227,-22.42867 -0.4161,-13.98197 -0.1649,-17.21391 2.5648,-33 3.6333,-21.01157 9.5633,-39.94886 17.3794,-55.5 13.1488,-26.16142 44.2565,-63.64731 67.218,-81 18.7388,-14.16144 22.1645,-19.67811 19.2501,-31 -0.8495,-3.3 -6.814,-18.375 -13.2546,-33.5 -6.4405,-15.125 -13.4281,-32 -15.5279,-37.5 -2.0999,-5.5 -6.7964,-17.65 -10.4368,-27 -3.6404,-9.35 -7.4941,-20.15 -8.5637,-24 -2.3835,-8.57866 -4.6975,-11.90641 -8.5442,-12.28714 -7.6989,-0.76201 -48.2238,14.01664 -54.4923,19.87232 -3.4855,3.25599 -3.4886,3.33878 -0.8744,23.62657 2.5624,19.88577 2.8107,45.74092 0.5707,59.44421 -4.6968,28.73418 -14.9446,48.99373 -51.4243,101.66407 -8.0348,11.60097 -15.7112,25.62911 -22.6767,41.44047 -20.2228,45.90482 -26.288,86.59655 -20.0833,134.7395 2.8364,22.00863 5.2503,31.98912 15.1163,62.5 9.559,29.56131 16.0679,44.87312 19.2679,45.32676 3.2823,0.4653 4.8903,-1.24489 8.707,-9.26027 3.8496,-8.08447 11.7501,-18.07276 19.5987,-24.77804 5.2787,-4.50978 17.4831,-12.77123 38.0963,-25.78845 7.4174,-4.68406 13.3933,-9.61026 21.3901,-17.6329 9.6778,-9.70901 11.7587,-12.42088 16.2699,-21.20329 6.9272,-13.48582 9.3361,-14.88027 5.2651,-3.04788 -6.5637,19.07797 -24.0325,39.40672 -46.1321,53.68507 -24.3958,15.76184 -30.2614,20.70325 -37.7607,31.81105 -5.6617,8.38601 -11.8593,20.92122 -13.8421,27.99716 -0.9944,3.54859 -1.8316,11.25843 -2.1055,19.39079 -0.4115,12.21337 -0.1577,14.96816 2.6631,28.90468 6.0729,30.00395 6.4844,51.70464 1.6114,84.96718 -4.0717,27.79271 -3.6207,31.2405 3.4613,26.45867 z m 694.8542,-79.21222 c 4.5235,-4.52346 12.3763,-30.28745 14.153,-46.43387 1.7764,-16.14355 -0.062,-23.17042 -5.8853,-22.48873 -4.9449,0.57891 -9.7342,12.34988 -13.6795,33.62086 -4.9038,26.43908 -2.3546,43.06811 5.4118,35.30174 z m -53.4908,-209.65205 c 3.8848,-3.88483 6.5506,-26.44083 4.7995,-40.61056 C 1783.0937,629.88877 1779.9342,621 1776,621 c -4.6821,0 -7.6331,10.43634 -8.6382,30.54887 -0.528,10.56604 -0.3172,14.56173 1.1077,21 3.1821,14.37705 7.3039,19.53483 11.9214,14.91739 z m -26.6824,438.47624 c -0.3327,-1.3434 -1.1036,-7.3925 -1.7132,-13.4425 -2.4563,-24.3805 -10.1079,-48.8293 -20.2377,-64.6648 -4.4734,-6.9931 -21.5262,-27.417 -29.9767,-35.9028 -3.5971,-3.6121 -10.0069,-8.7871 -14.2439,-11.5 -10.9859,-7.03387 -13.2814,-9.04456 -11.9142,-10.43563 2.4416,-2.4841 18.0665,4.14421 30.3772,12.88643 19.0165,13.5042 35.959,35.8293 44.5874,58.7527 2.9797,7.9164 6.0326,23.3967 6.8756,34.8641 0.646,8.7871 -0.6208,25.049 -2.3061,29.605 l -0.8435,2.28 z"
         id="path4" />
      <path
         style="fill:#b85c39"
         d="m 1276.5,1754.4684 c -12.6047,-1.8441 -30.7165,-7.0547 -39,-11.22 -10.7059,-5.3833 -17.6532,-10.4844 -28.6364,-21.0263 -25.5301,-24.5045 -38.7096,-51.6468 -44.3512,-91.3391 -3.1873,-22.4245 -1.1409,-45.2621 5.9641,-66.5605 5.7106,-17.1185 9.9323,-26.1193 18.1149,-38.6225 12.2321,-18.6907 40.7294,-44.2988 51.5745,-46.3456 2.9979,-0.5658 1.7615,0.9223 -12.2619,14.7582 -17.0393,16.8113 -21.2012,22.4273 -30.6774,41.395 -12.2546,24.5288 -16.4248,41.1955 -16.5123,65.9924 -0.093,26.4695 3.5578,44.1867 13.1553,63.8368 15.5818,31.9024 32.2371,49.3252 59.4669,62.2071 16.3667,7.7428 22.3817,8.9668 43.6635,8.8851 26.2885,-0.1008 40.7992,-3.4966 65.5648,-15.3433 25.2151,-12.0617 40.4337,-21.6439 72.3298,-45.5416 34.8879,-26.1392 51.4535,-40.7218 92.4793,-81.4087 58.8831,-58.3967 93.0186,-98.0715 135.3437,-157.3066 14.9045,-20.8591 39.2971,-60.8063 49.2484,-80.653 13.582,-27.0875 21.1121,-46.4926 26.5091,-68.314 5.2359,-21.1702 6.8439,-34.0775 6.2118,-49.8618 -0.6298,-15.7299 -2.3343,-23.2479 -7.9349,-35 -7.2331,-15.1774 -15.8505,-21.3926 -49.9074,-35.9949 -21.6011,-9.2617 -35.1286,-18.4588 -52.9584,-36.0051 -17.4048,-17.1282 -25.1203,-29.3492 -33.1631,-52.5289 -6.9557,-20.0466 -8.1239,-26.9182 -8.1549,-47.9711 -0.023,-15.4171 0.3071,-20.097 1.7494,-24.8175 3.0809,-10.08333 4.1187,-7.06116 4.7727,13.8984 0.3711,11.8931 1.2098,21.7044 2.2584,26.4191 6.0446,27.1794 19.2049,50.5037 40.6513,72.0478 14.778,14.8453 25.2863,21.2453 55,33.4973 18.4546,7.6095 28.5739,13.1213 40.8045,22.2255 13.8207,10.2879 18.9243,10.4388 28.0137,0.8282 7.9912,-8.4496 19.0061,-33.1868 24.5867,-55.2171 9.8942,-39.0582 0.9801,-88.1089 -25.5403,-140.53728 -7.4547,-14.73722 -26.6823,-44.59825 -36.7346,-57.04994 -8.0973,-10.02993 -20.7854,-21.76843 -26.7485,-24.74655 -8.2704,-4.13046 -17.9871,-2.29947 -35.8815,6.76146 -18.4069,9.32041 -38.5,34.23649 -38.5,47.74117 0,8.95968 6.5222,15.20176 25.75,24.64397 6.7375,3.30859 12.25,6.4803 12.25,7.04823 0,2.65849 -26.4324,-3.36111 -36.481,-8.30803 -11.3523,-5.58869 -16.519,-12.30596 -16.519,-21.47629 0,-8.80281 8.4186,-29.12163 16.0529,-38.745 5.4784,-6.90569 19.1775,-19.03982 28.4471,-25.19739 20.4644,-13.59396 42.8737,-19.55061 68.4157,-18.18566 20.6623,1.10419 57.6225,9.62587 74.9114,17.27185 6.2876,2.78068 9.4126,3.01883 11.209,0.85424 0.8104,-0.97644 1.5749,-6.76292 2.0809,-15.75 0.997,-17.70918 2.2837,-22.56114 10.3932,-39.19021 3.5694,-7.31927 6.4898,-14.40125 6.4898,-15.73771 0,-1.33646 -1.0125,-3.36153 -2.25,-4.50016 -6.0403,-5.55771 -53.9267,-26.27317 -77.75,-33.63433 -6.325,-1.95436 -21.175,-5.62195 -33,-8.15019 -42.8419,-9.15978 -56.1354,-13.64477 -79.9845,-26.98535 -2.4665,-1.37969 -6.0768,-2.50853 -8.0228,-2.50853 -12.4641,0 -57.3469,25.45754 -82.0146,46.51868 -13.578,11.59283 -29.6786,31.98145 -37.0225,46.88243 -10.7148,21.74081 -11.7888,44.87469 -2.8611,61.62483 3.26,6.11631 10.384,13.99787 16.2868,18.0185 7.3551,5.00989 3.5397,4.92885 -7.0745,-0.15027 -9.7301,-4.65606 -21.8371,-18.77544 -26.4007,-30.78889 -2.7033,-7.11642 -3.6149,-20.82538 -1.9481,-29.29743 3.091,-15.71109 12.2953,-37.43562 21.5689,-50.90783 6.7206,-9.76342 29.9331,-33.27728 42.4731,-43.02444 14.0869,-10.94959 29.9191,-20.45272 53.9462,-32.38074 20.4383,-10.14644 30.6145,-13.70331 58.85,-20.56981 27.6843,-6.73244 41.1556,-9.08535 65.2038,-11.38862 9.075,-0.86918 18.2051,-1.75499 20.2892,-1.96847 7.4004,-0.75805 7.956,-2.9481 4.7108,-18.56794 -3.2508,-15.64696 -2.5232,-38.5471 1.6299,-51.29809 2.8895,-8.87131 0.8181,-10.95043 -12.6299,-12.67716 -9.694,-1.24471 -48.9492,-1.25545 -64.868,-0.0177 -12.9921,1.01015 -40.1129,4.6694 -78.632,10.60936 -19.7561,3.04656 -24.763,3.48587 -35.5,3.1149 -16.0318,-0.55391 -22.7095,-2.35181 -39.7733,-10.70857 -15.4085,-7.54608 -23.3389,-12.70317 -37.3691,-24.30107 C 1466.3145,573.91325 1448.6041,563 1441.2473,563 c -2.7503,0 -5.1299,0.85935 -7.8473,2.83391 -13.1649,9.56613 -33.7329,39.31232 -42.7431,61.81669 -10.6492,26.59805 -16.0661,50.71191 -18.1618,80.8494 -2.769,39.81787 -7.4677,62.62591 -18.9704,92.08367 -7.6889,19.69073 -15.7479,33.20931 -30.0048,50.33158 -22.3074,26.79081 -39.625,41.41478 -86.1128,72.71848 -27.6434,18.61433 -36.3801,25.13006 -54.4109,40.57859 -25.2168,21.60549 -44.4965,43.43628 -69.5807,78.78768 -23.7688,33.4975 -40.0894,61.5437 -50.2973,86.4338 -11.1745,27.2468 -22.4176,68.5482 -27.5122,101.0662 -4.5697,29.1675 -4.7742,35.7355 -5.3098,170.5 -0.5322,133.9018 -0.4386,137.5592 3.5016,136.8004 2.5645,-0.4939 3.7819,-3.8797 9.1463,-25.4386 2.7182,-10.924 6.8027,-25.4868 9.0766,-32.3618 13.9523,-42.1833 35.4364,-84.7182 59.6111,-118.0196 19.296,-26.5809 38.05,-56.7276 47.0168,-75.5789 2.9035,-6.1041 8.6895,-21.1791 12.8579,-33.5 14.6835,-43.4016 32.758,-74.2878 57.6422,-98.5004 26.8423,-26.1177 56.0114,-40.1606 114.8943,-55.3134 19.8812,-5.1162 30.1949,-8.655 40.7421,-13.9792 8.8158,-4.4502 25.8323,-16.1202 33.0032,-22.6338 6.0656,-5.5096 15.9666,-17.5647 21.4189,-26.079 3.7044,-5.7847 11.8865,-22.3874 15.8421,-32.1457 1.8393,-4.5375 3.7056,-8.25 4.1474,-8.25 1.0683,0 1.0956,-0.2486 -1.2247,11.1373 -4.6646,22.8896 -16.8178,44.4598 -35.7817,63.5075 -21.3127,21.4069 -44.8493,33.4502 -91.4801,46.8088 -12.2156,3.4995 -26.0352,8.0338 -30.7102,10.0761 -12.9608,5.6623 -32.7632,16.9167 -42.1123,23.9342 -13.5223,10.1497 -29.3171,27.2482 -39.8879,43.1801 -12.6096,19.0048 -18.6788,31.9471 -27.3658,58.356 -7.9461,24.1566 -13.8646,38.8383 -21.8112,54.1057 -5.2736,10.1319 -5.9073,14.1673 -2.3059,14.6833 1.1093,0.159 8.0843,-2.5954 15.5,-6.1208 36.5371,-17.3696 54.8298,-21.4196 91.9831,-20.365 27.0488,0.7678 39.1274,3.3627 85.3625,18.3387 37.379,12.1075 59.5679,16.28 90.6375,17.0437 17.2334,0.4237 22.6532,0.1833 34.0126,-1.5085 30.9811,-4.6141 49.8944,-10.4861 71.2326,-22.1155 25.5121,-13.9042 41.7521,-26.9865 52.4469,-42.249 5.9031,-8.4244 7.869,-10.4186 6.3612,-6.4529 -8.3085,21.8531 -34.381,47.7577 -62.0533,61.654 -38.2347,19.2003 -67.8801,26.3233 -109.5,26.3098 -32.5018,-0.011 -59.0405,-4.9352 -104,-19.2986 -8.8,-2.8113 -22.75,-6.5469 -31,-8.3011 -14.3914,-3.0602 -15.9331,-3.1894 -38,-3.1848 -25.7378,0.01 -33.9113,1.2156 -54.5,8.0696 -17.6771,5.8848 -42.5945,20.0576 -60.1157,34.1935 -17.4962,14.1155 -41.895,43.679 -54.6335,66.1979 -5.5938,9.8888 -16.9095,35.39 -23.7957,53.6265 -15.8413,41.9524 -24.0895,76.3196 -30.4497,126.8735 -1.6607,13.2 -3.4634,27.15 -4.006,31 -2.3597,16.7431 -7.998,85.6068 -8.001,97.7208 0,7.2506 -2.2198,12.6125 -5.9984,14.5005 -5.9295,2.9628 -15.8862,0.4365 -17.8991,-4.5415 -0.596,-1.4739 -1.5425,-8.8606 -2.1035,-16.4149 -3.6415,-49.0416 -7.483,-85.1599 -13.4579,-126.5308 C 990.92964,1575.239 989.44117,1570 985.94957,1570 c -2.56727,0 -3.42132,2.3608 -4.88379,13.5 -2.08783,15.9024 -4.61828,25.0149 -13.93199,50.1709 -4.39076,11.8594 -7.93154,18.4316 -18.02009,33.4481 -10.5191,15.6574 -24.63827,31.7831 -38.63868,44.1297 -26.2888,23.1836 -48.75887,33.1165 -91.47502,40.4367 -14.99602,2.5699 -56.99533,2.5708 -72,0 -40.15607,-6.8759 -67.81704,-16.3566 -100.10688,-34.3112 -22.48562,-12.503 -39.07566,-24.954 -59.76912,-44.8576 -20.1058,-19.3383 -29.52948,-33.0012 -49.67288,-72.0181 -5.39507,-10.45 -10.92406,-20.4848 -12.28665,-22.2996 -3.9371,-5.2435 -9.42116,-7.7229 -29.16447,-13.1852 -33.06642,-9.1484 -66.62094,-24.5461 -91.47421,-41.9764 -26.27665,-18.4285 -38.60099,-30.0377 -56.67712,-53.3882 -21.53583,-27.8197 -38.27455,-64.2167 -44.57038,-96.9148 -1.4817,-7.6954 -1.77848,-14.7397 -1.77944,-42.2358 -10e-4,-35.0826 -0.0658,-35.6213 -5.04995,-42.1559 -1.32763,-1.7406 -7.21667,-6.8724 -13.08675,-11.4039 -39.58851,-30.5612 -67.89222,-78.9535 -75.99942,-129.9402 -2.63274,-16.5574 -2.62893,-62.3681 0.007,-79.5 2.46166,-16.0017 7.60702,-36.2405 12.67947,-49.8737 8.16394,-21.94205 24.89097,-54.12885 35.40431,-68.1263 6.4371,-8.57035 18.44624,-21.89956 24.65132,-27.36105 5.66289,-4.98427 12.33275,-15.11112 13.92278,-21.13895 1.4948,-5.6668 0.86382,-10.96833 -3.39201,-28.5 -5.77784,-23.80148 -6.13671,-26.61919 -6.1134,-48 0.0253,-23.23694 1.53528,-34.34909 7.56798,-55.69501 7.67127,-27.14381 17.36709,-47.38544 31.99882,-66.80279 18.24692,-24.21497 33.82959,-39.18134 55.4114,-53.21988 10.8227,-7.03995 13.78441,-9.74528 15.43339,-14.09742 1.62597,-4.29141 1.27584,-13.74312 -1.08112,-29.1849 -5.17005,-33.87185 -1.412,-68.16284 10.71513,-97.77212 4.55108,-11.11179 5.7428,-13.42813 14.78003,-28.72788 16.95588,-28.7058 46.81345,-56.97685 75.35324,-71.34926 26.07738,-13.13236 48.6183,-19.37738 76.29933,-21.13892 21.89946,-1.39363 24.47357,-3.4792 38.22004,-30.96636 C 627.49436,319.0045 633.08606,310.93516 654.64015,290 679.82658,265.5368 705.17801,251.11165 741,240.86061 c 19.74587,-5.6506 32.11188,-7.32118 54,-7.29509 19.81576,0.0236 33.67373,1.62164 51.16214,5.89974 36.97466,9.04492 74.30271,35.16834 95.07225,66.53474 14.29945,21.59519 20.71724,36.22096 27.18331,61.94915 11.84846,47.14444 9.45251,90.75371 -8.31598,151.36142 -6.97306,23.78488 -17.67764,51.09829 -25.35286,64.68943 -8.68141,15.37287 -34.5492,55.14053 -36.75365,56.50296 -2.84978,1.76126 -0.75753,-3.7079 9.0214,-23.58198 6.04114,-12.27762 12.61887,-26.62001 14.61719,-31.87196 1.99831,-5.25196 5.78135,-14.72402 8.40675,-21.04902 17.44757,-42.034 28.17857,-104.19719 25.03082,-145 -2.59495,-33.63708 -7.70485,-54.43097 -19.55978,-79.59534 C 916.93873,299.9802 885.83769,273.16671 841.65405,258.4862 820.4476,251.44011 814.42573,250.48428 792,250.60476 c -31.4597,0.16902 -53.28336,5.2787 -78.80522,18.45106 -31.63905,16.32956 -48.63371,30.75178 -67.69029,57.44418 -14.96925,20.96731 -24.91211,46.11659 -22.30035,56.40611 1.20841,4.76076 6.29103,10.96246 12.46642,15.21124 9.31804,6.41098 21.54563,21.1058 19.84792,23.85275 -1.10987,1.79581 -3.32314,1.17176 -17.78615,-5.01495 -15.57296,-6.6615 -24.91321,-9.36753 -37.7061,-10.92411 -28.84395,-3.50958 -65.86879,2.89417 -91.09257,15.75521 -12.58154,6.41505 -30.89968,18.53935 -39.0032,25.8152 -15.20689,13.6537 -34.11965,37.83025 -42.25991,54.02168 -3.79556,7.54958 -10.21671,26.77579 -12.52451,37.50089 -3.49769,16.25493 -4.41776,28.72439 -3.1578,42.79694 1.87493,20.94121 5.13179,33.15565 10.37873,38.92405 4.81273,5.29104 6.61711,5.64172 27.3653,5.31847 41.38936,-0.64483 65.77333,4.93121 88.6512,20.27242 11.76567,7.88971 24.90902,19.67565 32.14115,28.8217 6.24618,7.89917 8.03578,11.27802 6.48201,12.2383 -0.44309,0.27385 -6.13834,-4.04311 -12.65612,-9.59324 -14.16828,-12.06481 -21.37811,-16.5079 -37.0488,-22.83149 -35.7805,-14.43849 -62.23997,-15.36065 -102.80171,-3.58282 -31.51119,9.14984 -69.86528,37.52841 -88.07965,65.17101 -6.79169,10.30726 -17.61851,31.288 -22.22667,43.07193 -11.38552,29.11494 -14.53007,69.28875 -7.57444,96.76871 1.89723,7.49545 9.84962,24.36359 15.14759,32.13016 8.82382,12.9353 22.06303,22.92335 36.76801,27.73886 13.64615,4.46877 36.48939,5.95506 49.46516,3.21843 3.575,-0.75398 6.8375,-1.16804 7.25,-0.92014 4.58871,2.75767 -10.36252,12.71167 -23.99998,15.97834 -14.67504,3.51521 -30.1581,1.61175 -54.3147,-6.67735 -15.11238,-5.18566 -20.08802,-5.26908 -29.55096,-0.49544 -23.28762,11.74758 -50.80547,48.51873 -66.71752,89.15234 -10.51798,26.8591 -17.76204,71.6937 -16.21782,100.3748 3.01957,56.083 25.15838,103.9679 62.73533,135.6927 10.4274,8.8035 16.23287,12.6106 31.28896,20.5185 16.45215,8.6412 16.20012,8.019 10.31983,25.4795 -6.04419,17.9471 -8.02806,29.9482 -7.98586,48.3093 0.0375,16.2984 1.48416,25.9435 6.27539,41.8373 13.6231,45.1915 40.78046,82.8586 81.41733,112.9254 18.49517,13.6844 49.93271,30.1094 70,36.5725 34.39932,11.0791 58.14632,15.1833 86.5,14.9497 41.68837,-0.3434 67.58873,-5.5868 100.63994,-20.3741 23.93273,-10.7076 39.51168,-21.3761 59.72418,-40.8992 22.63552,-21.8634 36.16353,-45.6974 40.22011,-70.8605 1.72375,-10.6925 3.42392,-33.4039 2.7061,-36.1489 -0.70127,-2.6816 -4.69166,-4.0022 -12.09351,-4.0022 -8.30054,0 -29.99,-2.4605 -40.69682,-4.6167 -4.4,-0.8861 -16.26236,-4.2742 -26.3608,-7.5292 -38.03099,-12.2584 -49.20021,-14.3009 -78.1392,-14.2893 -18.49738,0.01 -22.93165,0.3203 -31.75123,2.2411 -24.61492,5.3606 -49.50758,16.0752 -63.78354,27.4543 -7.0077,5.5857 -16.06052,14.9871 -23.10915,23.9988 -4.69051,5.9968 -4.53564,1.7782 0.27047,-7.3679 6.68675,-12.7249 26.08156,-31.0415 42.70722,-40.333 13.84961,-7.7401 35.96742,-15.0377 53.21104,-17.5567 4.37535,-0.6391 18.18408,-1.4709 30.68606,-1.8483 19.44426,-0.587 22.97616,-0.9316 24.42735,-2.3827 2.39185,-2.3919 1.84738,-3.3179 -15.15186,-25.7704 -29.70882,-39.2392 -38.16648,-47.5641 -59.20414,-58.2754 -26.15036,-13.3144 -49.60521,-18.6879 -81.80222,-18.7411 -29.21502,-0.048 -59.76573,-7.1238 -78.10122,-18.0882 -16.46771,-9.8476 -33.50802,-32.0069 -42.03616,-54.664 -8.89576,-23.6339 -5.62238,-60.2265 7.28884,-81.4806 7.42059,-12.2156 17.36843,-22.0925 20.37791,-20.2325 1.60234,0.9903 1.17626,1.9825 -3.68999,8.5928 -14.53524,19.7447 -21.77402,43.5699 -19.33168,63.6268 4.53581,37.2488 22.30927,63.8381 52.9923,79.277 16.2645,8.1839 25.00091,9.726 59,10.4142 15.01693,0.304 28.17711,1.0975 34,2.05 46.78651,7.6532 60.505,13.5139 88.18024,37.6715 13.41807,11.7126 20.4771,19.4189 32.38056,35.3495 11.64255,15.5814 19.04567,23.3976 30.9392,32.6652 15.64654,12.1921 25.77178,17.6445 43,23.1551 22.44202,7.1784 38.95195,8.787 67.78609,6.6045 27.62796,-2.0913 45.13975,-1.6991 64.62272,1.4472 14.95199,2.4146 16.61668,2.5137 18.75,1.1159 3.38671,-2.2191 2.91071,-5.37 -1.74591,-11.5573 -8.64222,-11.4831 -16.39092,-29.932 -21.97203,-52.3135 -4.34067,-17.407 -7.57317,-26.8809 -12.66442,-37.1171 -8.81462,-17.7222 -22.46497,-35.6624 -35.00503,-46.0061 -10.71906,-8.8415 -33.01284,-19.4364 -50.77142,-24.1286 l -9,-2.3779 10,0.4657 c 12.31194,0.5735 23.42413,3.3359 34.26417,8.5178 24.66445,11.7904 46.77883,32.0557 56.23093,51.5291 6.63311,13.6657 15.9133,37.125 23.10567,58.4087 6.99981,20.7138 12.03587,31.5705 18.82893,40.5913 7.77103,10.3194 37.89931,40.8104 50.03712,50.6394 3.00676,2.4348 7.41829,6.887 9.80342,9.8938 2.38513,3.0067 5.97816,7.2668 7.98452,9.4668 11.1941,12.2745 22.48697,30.0301 30.5526,48.0373 5.71135,12.7511 18.90995,53.8511 22.72046,70.7508 3.00943,13.3468 5.37918,18.974 8.22088,19.5213 1.1693,0.2252 1.9445,-0.8133 2.6991,-3.6156 1.3728,-5.098 0.4362,-252.9081 -1.0287,-272.1938 -1.5536,-20.4545 -3.5678,-32.4503 -9.00893,-53.6542 -6.84098,-26.6591 -9.42677,-33.6038 -21.91064,-58.8458 -11.3767,-23.0034 -15.18217,-28.6047 -41.33114,-60.8357 -3.94261,-4.8596 -8.29995,-10.52 -9.68296,-12.5785 -1.38302,-2.0585 -3.04001,-3.5676 -3.68221,-3.3535 -1.65829,0.5527 -5.95144,-1.8368 -19.00624,-10.5787 -24.1856,-16.1953 -22.23528,-15.278 -54.71247,-25.7337 -33.48465,-10.7801 -55.03538,-13.8916 -96.08451,-13.8728 -40.90341,0.019 -57.5615,1.9766 -93.65463,11.0078 -24.81894,6.2101 -31.30384,8.3766 -57.34537,19.1586 -25.6349,10.6135 -38.83221,16.9741 -50.86273,24.5138 -12.72405,7.9744 -18.63727,10.3001 -18.63727,7.3303 0,-2.3992 9.4973,-9.7694 29.5,-22.8931 22.66703,-14.8716 32.47495,-20.2003 56.03154,-30.4419 9.76945,-4.2474 18.25665,-8.5101 18.86044,-9.4726 2.13756,-3.4075 -0.66878,-5.0742 -18.99039,-11.2787 -20.7336,-7.0212 -39.92227,-15.2656 -51.34447,-22.06 C 539.56276,993.841 515.15569,971.24822 502.03548,951 c -10.25955,-15.8334 -19.1718,-39.035 -22.66323,-59 -2.59247,-14.82453 -2.37875,-38.63695 0.48017,-53.5 2.22542,-11.56959 9.27164,-33.87319 13.11082,-41.5 2.5944,-5.15397 7.03051,-11.33959 7.67217,-10.69792 0.23839,0.23839 -1.57386,6.00545 -4.02722,12.81568 -8.73431,24.24531 -10.10661,32.11187 -10.09741,57.88224 0.005,15.12603 0.41526,21.36519 1.82727,27.81538 10.62517,48.53687 42.91523,88.53103 91.16195,112.91233 21.08956,10.65749 37.22731,15.93539 66.75182,21.83109 25.96335,5.1846 37.40764,5.9411 70.81847,4.6808 37.21828,-1.4038 69.46568,0.2989 91.75664,4.8447 9.5458,1.9467 32.05095,7.8643 47.09882,12.3845 7.70509,2.3144 8.62453,2.4007 10.75,1.008 2.63663,-1.7276 2.73253,-2.1872 1.03881,-4.9784 -1.28573,-2.1189 -21.11374,-21.3913 -46.8615,-45.54847 -15.44677,-14.49254 -15.65015,-14.63879 -51.42731,-36.98229 -19.75556,-12.33772 -39.29567,-24.97834 -43.42248,-28.09028 -7.78806,-5.87281 -22.9454,-21.60879 -31.66839,-32.87736 -9.91826,-12.81266 -16.64265,-26.62202 -21.75764,-44.68203 -5.71022,-20.16163 -6.87963,-37.35773 -4.07893,-59.98013 1.76856,-14.28532 3.9199,-22.04803 13.53485,-48.83784 11.79838,-32.87343 12.93674,-36.48027 15.50456,-49.12564 4.02221,-19.80762 3.17189,-36.5959 -3.04517,-60.12187 -2.96664,-11.22608 -7.1176,-21.19917 -12.00046,-28.8323 -9.78571,-15.29754 -28.38878,-29.29509 -45.05504,-33.90086 -9.17671,-2.53601 -31.20118,-3.15351 -41.08021,-1.15177 -10.00887,2.02806 -9.55921,2.05188 -9.17639,-0.4862 0.38597,-2.55904 10.07566,-8.66277 17.91939,-11.2878 2.97009,-0.99399 9.67516,-2.03829 14.90016,-2.32068 8.14372,-0.44012 10.92766,-0.13531 19.5,2.13507 5.5,1.45667 14.62702,4.90087 20.28226,7.65377 17.17669,8.36143 29.72317,22.14578 40.22662,44.19553 14.36238,30.15074 16.87925,67.9504 7.05581,105.96756 -1.6024,6.20135 -6.57993,21.82646 -11.06118,34.72245 -11.67006,33.58375 -12.96827,38.87062 -13.64124,55.55274 -0.95024,23.55506 2.47175,39.3803 13.13322,60.73554 7.46839,14.95944 15.2222,26.48881 23.20052,34.49759 11.08648,11.1288 35.91187,29.06964 53.61424,38.74599 18.3864,10.05025 21.22543,10.59039 21.13421,4.02088 -0.0306,-2.2 -2.16691,-10.64474 -4.74747,-18.76608 -8.99277,-28.30136 -12.35437,-51.72293 -11.28953,-78.65859 1.40642,-35.57638 6.85762,-56.53628 29.40833,-113.07533 6.03263,-15.125 12.38028,-31.72782 14.10589,-36.89516 3.45368,-10.34208 14.33228,-53.8191 16.03998,-64.10484 2.06306,-12.42609 2.32039,-31.75077 0.66581,-50 -2.15657,-23.78593 -6.89042,-42.35861 -16.82226,-66 -8.48716,-20.20254 -15.2765,-30.30648 -31.4371,-46.78488 -6.30264,-6.42659 -11.01933,-11.83138 -10.48152,-12.01065 0.53781,-0.17927 2.47083,0.43784 4.29562,1.37134 17.90683,9.16062 44.05018,44.01332 54.19841,72.25397 3.13126,8.71373 9.08052,31.9709 10.56461,41.29975 3.50027,22.00241 3.19971,45.992 -0.97321,77.67906 -3.26948,24.82678 -16.7585,72.52178 -31.16415,110.19141 -7.85586,20.54246 -14.96763,43.79334 -17.58757,57.5 -2.46295,12.8853 -2.40751,55.89951 0.0896,69.5 4.61757,25.14982 10.09347,41.58532 21.83016,65.5216 4.36945,8.91122 8.62066,15.50891 16.43088,25.5 5.79497,7.41312 13.06491,16.8534 16.15542,20.9784 3.0905,4.125 11.44138,13.125 18.5575,20 7.11612,6.875 16.20085,16.55 20.18827,21.5 8.24385,10.2339 14.77085,16.5539 19.66353,19.0397 7.31536,3.7168 19.14197,14.5706 40.33056,37.0134 25.77379,27.2994 40.13381,49.6975 52.85888,82.4469 5.8884,15.1543 7.928,19 10.0766,19 2.6189,0 4.4687,-3.7924 7.5601,-15.5 5.4311,-20.5677 11.9115,-42.1306 14.9425,-49.7193 7.8661,-19.6945 22.9754,-48.324 38.1331,-72.2555 13.9043,-21.9525 29.7892,-54.0563 35.8854,-72.5252 4.345,-13.16362 9.6829,-35.44547 11.5296,-48.12834 3.0812,-21.16054 1.5927,-53.2532 -3.4666,-74.74391 C 1116.4075,852.17588 1100.971,805.52 1095.7835,793 c -14.6716,-35.40928 -22.2067,-59.72863 -26.7615,-86.37149 -11.5199,-67.38421 3.4277,-130.7436 45.5626,-193.12851 18.9782,-28.09915 32.5324,-48.91565 37.1142,-57 8.0996,-14.29127 12.2499,-29.83198 14.8321,-55.53869 0.7817,-7.78165 -1.0184,-36.13848 -3.1224,-49.18762 -0.8223,-5.10053 -1.7561,-12.24076 -2.075,-15.86719 l -0.5798,-6.59349 3.8138,-3.81389 c 6.6501,-6.65005 34.5676,-18.00152 60.4325,-24.57226 18.8684,-4.79334 25.0688,-3.76868 29.325,4.84613 2.227,4.50759 10.7523,25.17892 21.5394,52.22701 2.7419,6.875 9.5134,23.075 15.0478,36 18.1988,42.50093 23.4619,51.37507 31.2164,52.63345 2.9367,0.47656 6.021,-0.7308 20.428,-7.99663 25.2793,-12.74902 29.4598,-17.97083 33.9823,-42.44682 3.7637,-20.36876 4.5648,-33.23404 4.2513,-68.26864 -0.3365,-37.60003 0.088,-40.34852 7.4595,-48.3277 5.4341,-5.88177 18.1197,-13.4135 31.2176,-18.53451 14.1622,-5.53716 20.4103,-7.04507 32.066,-7.73879 9.7194,-0.57847 10.126,-0.51745 12.9944,1.94982 l 2.9611,2.54699 0.6707,26.84141 c 0.535,21.40496 1.2068,30.38587 3.3171,44.34142 2.9593,19.57041 7.5681,42.17973 9.9884,49 2.7733,7.81534 7.5211,13.81241 13.1162,16.56748 6.1466,3.02668 8.3709,3.10249 57.9188,1.97422 38.1511,-0.86875 52.4863,-0.1197 66.581,3.47898 10.2893,2.6271 13.4927,4.25428 15.3158,7.77978 4.4703,8.64452 7.7315,42.95708 5.8203,61.23647 -2.0332,19.4451 -4.2413,21.57264 -23.9145,23.04194 -15.3362,1.14539 -56.6802,6.37667 -67.2543,8.5097 -23.7921,4.79946 -56.509,17.67834 -74.073,29.15857 -15.2898,9.99379 -17.8755,13.98176 -12.2253,18.85507 7.6358,6.58586 35.4398,28.1414 40.25,31.20457 3.025,1.92634 8.2,5.58769 11.5,8.13635 23.4467,18.10836 41.5539,23.21685 69.5061,19.60943 6.8716,-0.88683 20.8189,-2.92123 30.9939,-4.52089 39.5872,-6.22367 69.5132,-9.02364 96.494,-9.02825 22.8604,-0.004 61.676,3.17409 68.2276,5.58609 8.2684,3.04406 12.8836,11.58359 16.856,31.18896 5.7397,28.32798 2.2631,63.93833 -7.3586,75.3731 -4.3114,5.12378 -7.4911,5.83616 -33.0631,7.4073 -38.3881,2.35856 -76.9402,8.82865 -91.8171,15.4094 -4.1098,1.81795 -4.4442,2.23772 -4.1542,5.21415 0.241,2.47369 1.2587,3.88758 4.3154,5.99581 5.6323,3.8846 18.1205,8.51758 25.0969,9.3107 22.729,2.58394 41.4225,7.21989 75.9031,18.82378 29.8263,10.03754 44.3412,15.96876 57.0872,23.32738 4.3521,2.51254 12.8628,7.29717 18.9128,10.6325 6.05,3.33534 12.254,7.21346 13.7867,8.61805 4.3381,3.97562 6.0517,11.48617 5.9572,26.10936 -0.1369,21.17295 -4.4981,42.59023 -11.7087,57.5 -5.8319,12.05889 -10.3609,17.81299 -15.7029,19.95043 -5.6927,2.27776 -9.9602,1.55062 -25.6715,-4.37414 -30.9117,-11.65685 -51.9057,-17.29543 -65.0342,-17.46691 -13.984,-0.18267 -13.7439,1.49176 3.508,24.4596 27.3262,36.38004 45.2339,71.76387 56.8208,112.27252 6.3552,22.2183 7.9194,35.1565 7.2442,59.923 -0.5937,21.7822 -1.9371,30.6029 -7.8028,51.2355 -4.1801,14.7036 -9.1487,25.9423 -18.2421,41.2625 -13.0286,21.9499 -14.4514,26.3184 -17.1767,52.7375 -3.7399,36.2553 -11.5903,69.9365 -22.4486,96.3132 -14.8971,36.1876 -38.6797,77.8029 -69.8284,122.1868 -9.5963,13.6738 -12.2795,17.2323 -33.9309,45 -28.0236,35.9399 -78.8914,91.1816 -118.7701,128.9827 -46.4413,44.0217 -70.8452,63.775 -109.6613,88.763 -27.3835,17.6282 -34.8236,21.6114 -52.4455,28.0772 -29.6381,10.8747 -57.8536,14.4551 -83.8932,10.6455 z m -455.63235,-23.0201 c 22.39937,-4.5293 43.6517,-13.2358 62.13235,-25.4538 28.81989,-19.0536 43.9997,-36.8776 68.55291,-80.4945 3.81542,-6.7778 9.43232,-23.1446 10.90737,-31.7824 1.20843,-7.0765 2.17042,-15.9784 3.96793,-36.7176 0.5389,-6.2176 -1.18507,-28.6357 -3.03758,-39.5 -0.84403,-4.95 -3.37332,-15.975 -5.62063,-24.5 -7.68089,-29.1369 -8.74113,-33.5023 -8.75556,-36.05 -0.008,-1.4025 -0.40913,-2.9775 -0.89152,-3.5 -1.54131,-1.6695 -4.01676,-10.7444 -4.72302,-17.3146 l -0.68416,-6.3646 -1.3264,3.1545 c -0.72951,1.7351 -1.97025,3.7985 -2.75718,4.5854 -1.80064,1.8006 -3.5303,0.4169 -20.34143,-16.2733 -13.75425,-13.6554 -21.72844,-19.4307 -38.31665,-27.7512 C 857.28063,1382.1034 843.40195,1378 827.59569,1378 c -27.87995,0 -37.2338,8.8071 -46.52573,43.806 -5.52047,20.7934 -10.74017,34.1837 -18.31837,46.9929 -18.07574,30.5529 -38.44141,50.9954 -69.66736,69.9303 -18.98107,11.5098 -29.05333,15.6394 -57.58423,23.6094 -20.31313,5.6745 -23.65531,6.314 -42.5,8.132 -8.525,0.8224 -17.63725,1.7067 -20.24945,1.9652 -13.34599,1.3203 -18.43081,10.1758 -14.13981,24.6251 4.87411,16.413 25.53494,47.2744 43.61042,65.1418 3.72941,3.6864 12.29282,10.9274 19.0298,16.0911 32.66428,25.036 51.61865,34.7998 89.48492,46.0955 28.86851,8.6116 44.82632,10.7034 76.63177,10.0452 17.21545,-0.3562 23.07854,-0.8788 33.5,-2.9862 z M 1139.0275,976.33053 c 1.3599,-0.9182 9.2225,-8.24657 17.4725,-16.28526 18.1064,-17.6426 36.0325,-30.99913 79.8054,-59.4618 35.5597,-23.12219 55.4673,-39.72106 73.0349,-60.89608 16.4803,-19.86451 26.5259,-36.80684 34.5008,-58.18739 6.3794,-17.10295 10.285,-39.864 12.1829,-71 2.8391,-46.57656 10.562,-78.73975 25.9869,-108.22605 9.7287,-18.59729 18.5123,-31.387 30.9123,-45.0109 14.749,-16.20471 23.5555,-24.03612 37.5768,-33.41592 41.1084,-27.50029 94.7818,-43.72039 153.7098,-46.45109 13.39,-0.62048 14.8955,-0.87925 16.7788,-2.88391 3.0698,-3.26764 3.4622,-9.98713 1.9985,-34.22593 -1.4844,-24.58176 -1.3962,-24.35036 -9.9821,-26.19171 -18.389,-3.94373 -62.9274,-5.56378 -85.7122,-3.11771 -6.7812,0.728 -17.0083,1.08294 -23.0085,0.79854 -13.4014,-0.6352 -19.5129,-2.95851 -25.423,-9.66467 -4.348,-4.93377 -12.4776,-20.7564 -15.7418,-30.63853 -5.568,-16.85669 -10.1179,-52.70336 -10.1189,-79.72212 -8e-4,-24.36227 -0.2406,-24.57683 -20.2691,-18.14086 -19.3269,6.21051 -30.279,12.25582 -34.0197,18.778 -0.8705,1.51784 -1.378,14.22254 -1.8019,45.11286 -0.6183,45.0496 -1.2208,52.39293 -5.529,67.38803 -5.0057,17.42247 -12.5227,29.81646 -23.283,38.38873 -8.8781,7.07289 -11.9387,8.98161 -31.4386,19.60673 -21.496,11.71274 -30.8123,18.02714 -49.7607,33.72662 -18.9018,15.66086 -38.0685,34.7523 -47.5766,47.38989 -8.9879,11.94607 -19.1672,29.74306 -27.2085,47.57009 -12.4522,27.6054 -17.6745,48.5973 -18.8338,75.7056 -0.6685,15.62873 -1.7207,17.02377 -4.641,6.15298 -1.2846,-4.78171 -2.0043,-11.7316 -2.3227,-22.42867 -0.4161,-13.98197 -0.1649,-17.21391 2.5648,-33 3.6333,-21.01157 9.5633,-39.94886 17.3794,-55.5 13.1488,-26.16142 44.2565,-63.64731 67.218,-81 18.7388,-14.16144 22.1645,-19.67811 19.2501,-31 -0.8495,-3.3 -6.814,-18.375 -13.2546,-33.5 -6.4405,-15.125 -13.4281,-32 -15.5279,-37.5 -2.0999,-5.5 -6.7964,-17.65 -10.4368,-27 -3.6404,-9.35 -7.4941,-20.15 -8.5637,-24 -2.3835,-8.57866 -4.6975,-11.90641 -8.5442,-12.28714 -7.6989,-0.76201 -48.2238,14.01664 -54.4923,19.87232 -3.4855,3.25599 -3.4886,3.33878 -0.8744,23.62657 2.5624,19.88577 2.8107,45.74092 0.5707,59.44421 -4.6968,28.73418 -14.9446,48.99373 -51.4243,101.66407 -8.0348,11.60097 -15.7112,25.62911 -22.6767,41.44047 -20.2228,45.90482 -26.288,86.59655 -20.0833,134.7395 2.8364,22.00863 5.2503,31.98912 15.1163,62.5 9.559,29.56131 16.0679,44.87312 19.2679,45.32676 3.2823,0.4653 4.8903,-1.24489 8.707,-9.26027 3.8496,-8.08447 11.7501,-18.07276 19.5987,-24.77804 5.2787,-4.50978 17.4831,-12.77123 38.0963,-25.78845 7.4174,-4.68406 13.3933,-9.61026 21.3901,-17.6329 9.6778,-9.70901 11.7587,-12.42088 16.2699,-21.20329 6.9272,-13.48582 9.3361,-14.88027 5.2651,-3.04788 -6.5637,19.07797 -24.0325,39.40672 -46.1321,53.68507 -24.3958,15.76184 -30.2614,20.70325 -37.7607,31.81105 -5.6617,8.38601 -11.8593,20.92122 -13.8421,27.99716 -0.9944,3.54859 -1.8316,11.25843 -2.1055,19.39079 -0.4115,12.21337 -0.1577,14.96816 2.6631,28.90468 6.0729,30.00395 6.4844,51.70464 1.6114,84.96718 -4.0717,27.79271 -3.6207,31.2405 3.4613,26.45867 z m 694.8542,-79.21222 c 4.5235,-4.52346 12.3763,-30.28745 14.153,-46.43387 1.7764,-16.14355 -0.062,-23.17042 -5.8853,-22.48873 -4.9449,0.57891 -9.7342,12.34988 -13.6795,33.62086 -4.9038,26.43908 -2.3546,43.06811 5.4118,35.30174 z m -53.4908,-209.65205 c 3.8848,-3.88483 6.5506,-26.44083 4.7995,-40.61056 C 1783.0937,629.88877 1779.9342,621 1776,621 c -4.6821,0 -7.6331,10.43634 -8.6382,30.54887 -0.528,10.56604 -0.3172,14.56173 1.1077,21 3.1821,14.37705 7.3039,19.53483 11.9214,14.91739 z m -26.6824,438.47624 c -0.3327,-1.3434 -1.1036,-7.3925 -1.7132,-13.4425 -2.4563,-24.3805 -10.1079,-48.8293 -20.2377,-64.6648 -4.4734,-6.9931 -21.5262,-27.417 -29.9767,-35.9028 -3.5971,-3.6121 -10.0069,-8.7871 -14.2439,-11.5 -10.9859,-7.03387 -13.2814,-9.04456 -11.9142,-10.43563 2.4416,-2.4841 18.0665,4.14421 30.3772,12.88643 19.0165,13.5042 35.959,35.8293 44.5874,58.7527 2.9797,7.9164 6.0326,23.3967 6.8756,34.8641 0.646,8.7871 -0.6208,25.049 -2.3061,29.605 l -0.8435,2.28 z"
         id="path3" />
      <path
         style="fill:#376f62"
         d="m 760,1753.3732 c -43.19431,-5.2693 -77.45343,-16.1726 -113.10688,-35.9975 -22.48562,-12.503 -39.07566,-24.954 -59.76912,-44.8576 -20.1058,-19.3383 -29.52948,-33.0012 -49.67288,-72.0181 -5.39507,-10.45 -10.92406,-20.4848 -12.28665,-22.2996 -3.9371,-5.2435 -9.42116,-7.7229 -29.16447,-13.1852 -33.06642,-9.1484 -66.62094,-24.5461 -91.47421,-41.9764 -26.27665,-18.4285 -38.60099,-30.0377 -56.67712,-53.3882 -21.53583,-27.8197 -38.27455,-64.2167 -44.57038,-96.9148 -1.4817,-7.6954 -1.77848,-14.7397 -1.77944,-42.2358 -10e-4,-35.0826 -0.0658,-35.6213 -5.04995,-42.1559 -1.32763,-1.7406 -7.21667,-6.8724 -13.08675,-11.4039 -39.58851,-30.5612 -67.89222,-78.9535 -75.99942,-129.9402 -2.63274,-16.5574 -2.62893,-62.3681 0.007,-79.5 2.46166,-16.0017 7.60702,-36.2405 12.67947,-49.8737 8.16394,-21.94205 24.89097,-54.12885 35.40431,-68.1263 6.4371,-8.57035 18.44624,-21.89956 24.65132,-27.36105 5.66289,-4.98427 12.33275,-15.11112 13.92278,-21.13895 1.4948,-5.6668 0.86382,-10.96833 -3.39201,-28.5 -5.77784,-23.80148 -6.13671,-26.61919 -6.1134,-48 0.0253,-23.23694 1.53528,-34.34909 7.56798,-55.69501 7.67127,-27.14381 17.36709,-47.38544 31.99882,-66.80279 18.24692,-24.21497 33.82959,-39.18134 55.4114,-53.21988 10.8227,-7.03995 13.78441,-9.74528 15.43339,-14.09742 1.62597,-4.29141 1.27584,-13.74312 -1.08112,-29.1849 -5.17005,-33.87185 -1.412,-68.16284 10.71513,-97.77212 4.55108,-11.11179 5.7428,-13.42813 14.78003,-28.72788 16.95588,-28.7058 46.81345,-56.97685 75.35324,-71.34926 26.07738,-13.13236 48.6183,-19.37738 76.29933,-21.13892 21.89946,-1.39363 24.47357,-3.4792 38.22004,-30.96636 C 627.49436,319.0045 633.08606,310.93516 654.64015,290 679.82658,265.5368 705.17801,251.11165 741,240.86061 c 19.74587,-5.6506 32.11188,-7.32118 54,-7.29509 19.81576,0.0236 33.67373,1.62164 51.16214,5.89974 36.97466,9.04492 74.30271,35.16834 95.07225,66.53474 14.29945,21.59519 20.71724,36.22096 27.18331,61.94915 11.84846,47.14444 9.45251,90.75371 -8.31598,151.36142 -6.97306,23.78488 -17.67764,51.09829 -25.35286,64.68943 -8.68141,15.37287 -34.5492,55.14053 -36.75365,56.50296 -2.84978,1.76126 -0.75753,-3.7079 9.0214,-23.58198 6.04114,-12.27762 12.61887,-26.62001 14.61719,-31.87196 1.99831,-5.25196 5.78135,-14.72402 8.40675,-21.04902 17.44757,-42.034 28.17857,-104.19719 25.03082,-145 -2.59495,-33.63708 -7.70485,-54.43097 -19.55978,-79.59534 C 916.93873,299.9802 885.83769,273.16671 841.65405,258.4862 820.4476,251.44011 814.42573,250.48428 792,250.60476 c -31.4597,0.16902 -53.28336,5.2787 -78.80522,18.45106 -31.63905,16.32956 -48.63371,30.75178 -67.69029,57.44418 -14.96925,20.96731 -24.91211,46.11659 -22.30035,56.40611 1.20841,4.76076 6.29103,10.96246 12.46642,15.21124 9.31804,6.41098 21.54563,21.1058 19.84792,23.85275 -1.10987,1.79581 -3.32314,1.17176 -17.78615,-5.01495 -15.57296,-6.6615 -24.91321,-9.36753 -37.7061,-10.92411 -28.84395,-3.50958 -65.86879,2.89417 -91.09257,15.75521 -12.58154,6.41505 -30.89968,18.53935 -39.0032,25.8152 -15.20689,13.6537 -34.11965,37.83025 -42.25991,54.02168 -3.79556,7.54958 -10.21671,26.77579 -12.52451,37.50089 -3.49769,16.25493 -4.41776,28.72439 -3.1578,42.79694 1.87493,20.94121 5.13179,33.15565 10.37873,38.92405 4.81273,5.29104 6.61711,5.64172 27.3653,5.31847 41.38936,-0.64483 65.77333,4.93121 88.6512,20.27242 11.76567,7.88971 24.90902,19.67565 32.14115,28.8217 6.24618,7.89917 8.03578,11.27802 6.48201,12.2383 -0.44309,0.27385 -6.13834,-4.04311 -12.65612,-9.59324 -14.16828,-12.06481 -21.37811,-16.5079 -37.0488,-22.83149 -35.7805,-14.43849 -62.23997,-15.36065 -102.80171,-3.58282 -31.51119,9.14984 -69.86528,37.52841 -88.07965,65.17101 -6.79169,10.30726 -17.61851,31.288 -22.22667,43.07193 -11.38552,29.11494 -14.53007,69.28875 -7.57444,96.76871 1.89723,7.49545 9.84962,24.36359 15.14759,32.13016 8.82382,12.9353 22.06303,22.92335 36.76801,27.73886 13.64615,4.46877 36.48939,5.95506 49.46516,3.21843 3.575,-0.75398 6.8375,-1.16804 7.25,-0.92014 4.58871,2.75767 -10.36252,12.71167 -23.99998,15.97834 -14.67504,3.51521 -30.1581,1.61175 -54.3147,-6.67735 -15.11238,-5.18566 -20.08802,-5.26908 -29.55096,-0.49544 -23.28762,11.74758 -50.80547,48.51873 -66.71752,89.15234 -10.51798,26.8591 -17.76204,71.6937 -16.21782,100.3748 3.01957,56.083 25.15838,103.9679 62.73533,135.6927 10.4274,8.8035 16.23287,12.6106 31.28896,20.5185 16.45215,8.6412 16.20012,8.019 10.31983,25.4795 -6.04419,17.9471 -8.02806,29.9482 -7.98586,48.3093 0.0375,16.2984 1.48416,25.9435 6.27539,41.8373 13.6231,45.1915 40.78046,82.8586 81.41733,112.9254 18.49517,13.6844 49.93271,30.1094 70,36.5725 34.39932,11.0791 58.14632,15.1833 86.5,14.9497 41.68837,-0.3434 67.58873,-5.5868 100.63994,-20.3741 23.93273,-10.7076 39.51168,-21.3761 59.72418,-40.8992 22.63552,-21.8634 36.16353,-45.6974 40.22011,-70.8605 1.72375,-10.6925 3.42392,-33.4039 2.7061,-36.1489 -0.70127,-2.6816 -4.69166,-4.0022 -12.09351,-4.0022 -8.30054,0 -29.99,-2.4605 -40.69682,-4.6167 -4.4,-0.8861 -16.26236,-4.2742 -26.3608,-7.5292 -38.03099,-12.2584 -49.20021,-14.3009 -78.1392,-14.2893 -18.49738,0.01 -22.93165,0.3203 -31.75123,2.2411 -24.61492,5.3606 -49.50758,16.0752 -63.78354,27.4543 -7.0077,5.5857 -16.06052,14.9871 -23.10915,23.9988 -4.69051,5.9968 -4.53564,1.7782 0.27047,-7.3679 6.68675,-12.7249 26.08156,-31.0415 42.70722,-40.333 13.84961,-7.7401 35.96742,-15.0377 53.21104,-17.5567 4.37535,-0.6391 18.18408,-1.4709 30.68606,-1.8483 19.44426,-0.587 22.97616,-0.9316 24.42735,-2.3827 2.39185,-2.3919 1.84738,-3.3179 -15.15186,-25.7704 -29.70882,-39.2392 -38.16648,-47.5641 -59.20414,-58.2754 -26.15036,-13.3144 -49.60521,-18.6879 -81.80222,-18.7411 -29.21502,-0.048 -59.76573,-7.1238 -78.10122,-18.0882 -16.46771,-9.8476 -33.50802,-32.0069 -42.03616,-54.664 -8.89576,-23.6339 -5.62238,-60.2265 7.28884,-81.4806 7.42059,-12.2156 17.36843,-22.0925 20.37791,-20.2325 1.60234,0.9903 1.17626,1.9825 -3.68999,8.5928 -14.53524,19.7447 -21.77402,43.5699 -19.33168,63.6268 4.53581,37.2488 22.30927,63.8381 52.9923,79.277 16.2645,8.1839 25.00091,9.726 59,10.4142 15.01693,0.304 28.17711,1.0975 34,2.05 46.78651,7.6532 60.505,13.5139 88.18024,37.6715 13.41807,11.7126 20.4771,19.4189 32.38056,35.3495 11.64255,15.5814 19.04567,23.3976 30.9392,32.6652 15.64654,12.1921 25.77178,17.6445 43,23.1551 22.44202,7.1784 38.95195,8.787 67.78609,6.6045 27.62796,-2.0913 45.13975,-1.6991 64.62272,1.4472 14.95199,2.4146 16.61668,2.5137 18.75,1.1159 3.38671,-2.2191 2.91071,-5.37 -1.74591,-11.5573 -8.64222,-11.4831 -16.39092,-29.932 -21.97203,-52.3135 -4.34067,-17.407 -7.57317,-26.8809 -12.66442,-37.1171 -8.81462,-17.7222 -22.46497,-35.6624 -35.00503,-46.0061 -10.71906,-8.8415 -33.01284,-19.4364 -50.77142,-24.1286 l -9,-2.3779 10,0.4657 c 12.31194,0.5735 23.42413,3.3359 34.26417,8.5178 24.66445,11.7904 46.77883,32.0557 56.23093,51.5291 6.59699,13.5912 15.89945,37.084 22.97662,58.0261 10.99842,32.5453 13.56634,36.6784 39.43678,63.4739 11.59286,12.0074 22.62384,22.468 31.47701,29.8495 2.86917,2.3922 7.66868,7.6073 10.66558,11.589 4.58119,6.0867 5.44891,7.9073 5.44891,11.4326 0,4.4711 -2.00466,10.2764 -4.36293,12.6347 -1.80645,1.8064 -3.52289,0.434 -20.34634,-16.2684 -13.75425,-13.6554 -21.72844,-19.4307 -38.31665,-27.7512 C 857.28063,1382.1034 843.40195,1378 827.59569,1378 c -27.87995,0 -37.2338,8.8071 -46.52573,43.806 -5.52047,20.7934 -10.74017,34.1837 -18.31837,46.9929 -18.07574,30.5529 -38.44141,50.9954 -69.66736,69.9303 -18.98107,11.5098 -29.05333,15.6394 -57.58423,23.6094 -20.31313,5.6745 -23.65531,6.314 -42.5,8.132 -8.525,0.8224 -17.63725,1.7067 -20.24945,1.9652 -13.34599,1.3203 -18.43081,10.1758 -14.13981,24.6251 4.87411,16.413 25.53494,47.2744 43.61042,65.1418 3.72941,3.6864 12.29282,10.9274 19.0298,16.0911 33.34966,25.5613 53.10372,35.5559 93.24904,47.1795 25.61319,7.4159 36.85679,8.9212 66.5,8.9026 27.50821,-0.017 36.56541,-1.1271 56.61739,-6.938 19.08087,-5.5294 44.75631,-19.4127 61.88261,-33.4613 15.10832,-12.3932 30.57684,-31.2753 42.45048,-51.8185 3.70602,-6.4119 7.7116,-13.2759 8.90129,-15.2533 1.18969,-1.9773 3.94576,-8.2773 6.12461,-14 3.59013,-9.4293 5.55057,-10.6648 3.01205,-1.8982 -2.05159,7.085 -3.21787,16.8124 -3.47622,28.9934 -0.18169,8.5668 -0.78286,13.8964 -1.91057,16.9378 -4.4475,11.995 -25.4375,37.8294 -44.12662,54.3109 -25.83205,22.7808 -47.64939,32.6195 -88.47502,39.8987 -8.93022,1.5923 -16.7513,2.1178 -35,2.3516 -12.925,0.1656 -25.075,0.109 -27,-0.1258 z M 962.15789,1595 c 0,-1.375 0.22698,-1.9375 0.50439,-1.25 0.27741,0.6875 0.27741,1.8125 0,2.5 -0.27741,0.6875 -0.50439,0.125 -0.50439,-1.25 z m 1,-5 c 0,-1.375 0.22698,-1.9375 0.50439,-1.25 0.27741,0.6875 0.27741,1.8125 0,2.5 -0.27741,0.6875 -0.50439,0.125 -0.50439,-1.25 z M 530,1104.5576 c 0,-2.3992 9.4973,-9.7694 29.5,-22.8931 22.66703,-14.8716 32.47495,-20.2003 56.03154,-30.4419 9.76945,-4.2474 18.25665,-8.5101 18.86044,-9.4726 2.13756,-3.4075 -0.66878,-5.0742 -18.99039,-11.2787 -20.7336,-7.0212 -39.92227,-15.2656 -51.34447,-22.06 C 539.56276,993.841 515.15569,971.24822 502.03548,951 c -10.25955,-15.8334 -19.1718,-39.035 -22.66323,-59 -2.59247,-14.82453 -2.37875,-38.63695 0.48017,-53.5 2.22542,-11.56959 9.27164,-33.87319 13.11082,-41.5 2.5944,-5.15397 7.03051,-11.33959 7.67217,-10.69792 0.23839,0.23839 -1.57386,6.00545 -4.02722,12.81568 -8.73431,24.24531 -10.10661,32.11187 -10.09741,57.88224 0.005,15.12603 0.41526,21.36519 1.82727,27.81538 10.62517,48.53687 42.91523,88.53103 91.16195,112.91233 21.08956,10.65749 37.22731,15.93539 66.75182,21.83109 25.96335,5.1846 37.40764,5.9411 70.81847,4.6808 37.21828,-1.4038 69.46568,0.2989 91.75664,4.8447 9.5458,1.9467 32.05095,7.8643 47.09882,12.3845 7.70509,2.3144 8.62453,2.4007 10.75,1.008 2.63663,-1.7276 2.73253,-2.1872 1.03881,-4.9784 -1.28573,-2.1189 -21.11374,-21.3913 -46.8615,-45.54847 -15.44677,-14.49254 -15.65015,-14.63879 -51.42731,-36.98229 -19.75556,-12.33772 -39.29567,-24.97834 -43.42248,-28.09028 -7.78806,-5.87281 -22.9454,-21.60879 -31.66839,-32.87736 -9.91826,-12.81266 -16.64265,-26.62202 -21.75764,-44.68203 -5.71022,-20.16163 -6.87963,-37.35773 -4.07893,-59.98013 1.76856,-14.28532 3.9199,-22.04803 13.53485,-48.83784 11.79838,-32.87343 12.93674,-36.48027 15.50456,-49.12564 4.02221,-19.80762 3.17189,-36.5959 -3.04517,-60.12187 -2.96664,-11.22608 -7.1176,-21.19917 -12.00046,-28.8323 -9.78571,-15.29754 -28.38878,-29.29509 -45.05504,-33.90086 -9.17671,-2.53601 -31.20118,-3.15351 -41.08021,-1.15177 -10.00887,2.02806 -9.55921,2.05188 -9.17639,-0.4862 0.38597,-2.55904 10.07566,-8.66277 17.91939,-11.2878 2.97009,-0.99399 9.67516,-2.03829 14.90016,-2.32068 8.14372,-0.44012 10.92766,-0.13531 19.5,2.13507 5.5,1.45667 14.62702,4.90087 20.28226,7.65377 17.17669,8.36143 29.72317,22.14578 40.22662,44.19553 14.36238,30.15074 16.87925,67.9504 7.05581,105.96756 -1.6024,6.20135 -6.57993,21.82646 -11.06118,34.72245 -11.67006,33.58375 -12.96827,38.87062 -13.64124,55.55274 -0.95024,23.55506 2.47175,39.3803 13.13322,60.73554 7.46839,14.95944 15.2222,26.48881 23.20052,34.49759 11.08648,11.1288 35.91187,29.06964 53.61424,38.74599 18.3864,10.05025 21.22543,10.59039 21.13421,4.02088 -0.0306,-2.2 -2.16691,-10.64474 -4.74747,-18.76608 -8.99277,-28.30136 -12.35437,-51.72293 -11.28953,-78.65859 1.40642,-35.57638 6.85762,-56.53628 29.40833,-113.07533 6.03263,-15.125 12.38028,-31.72782 14.10589,-36.89516 3.45368,-10.34208 14.33228,-53.8191 16.03998,-64.10484 2.06306,-12.42609 2.32039,-31.75077 0.66581,-50 -2.15657,-23.78593 -6.89042,-42.35861 -16.82226,-66 -8.48716,-20.20254 -15.2765,-30.30648 -31.4371,-46.78488 -6.30264,-6.42659 -11.01933,-11.83138 -10.48152,-12.01065 0.53781,-0.17927 2.47083,0.43784 4.29562,1.37134 17.90683,9.16062 44.05018,44.01332 54.19841,72.25397 3.13126,8.71373 9.08052,31.9709 10.56461,41.29975 3.50027,22.00241 3.19971,45.992 -0.97321,77.67906 -3.26948,24.82678 -16.7585,72.52178 -31.16415,110.19141 -7.85586,20.54246 -14.96763,43.79334 -17.58757,57.5 -2.46295,12.8853 -2.40751,55.89951 0.0896,69.5 4.61757,25.14982 10.09347,41.58532 21.83016,65.5216 4.36945,8.91122 8.62066,15.50891 16.43088,25.5 5.79497,7.41312 13.06491,16.8534 16.15542,20.9784 3.0905,4.125 11.41297,13.1013 18.49437,19.9473 7.0814,6.8461 15.41263,15.6211 18.51385,19.5 7.5467,9.4394 15.06083,17.2286 18.96766,19.6621 3.45723,2.1535 9.29778,13.0026 9.29778,17.2711 0,1.3064 0.6156,3.8927 1.36799,5.7474 1.91445,4.7191 2.73908,11.0977 1.65941,12.8355 -1.23713,1.9912 -4.54312,0.3547 -19.47233,-9.6393 -24.49543,-16.3979 -22.45382,-15.4358 -54.97056,-25.9042 -33.48465,-10.7801 -55.03538,-13.8916 -96.08451,-13.8728 -40.90341,0.019 -57.5615,1.9766 -93.65463,11.0078 -24.81894,6.2101 -31.30384,8.3766 -57.34537,19.1586 -25.6349,10.6135 -38.83221,16.9741 -50.86273,24.5138 C 535.91322,1105.2017 530,1107.5274 530,1104.5576 Z"
         id="path2" />
    </g>
  </g>
</svg>
